<svg xmlns="http://www.w3.org/2000/svg" width="1024" height="1024"><path d="M0 0v1024h1024V0H0z" style="fill:#fffdfa;stroke:none"/><path d="m228 227 .5 1.5.306.556.805 1.944.722 2 .334 1 .639 2 .277 1 .334 2 .083 2v6l-.028 2-.055 1-.306 2-.222 1-.195 1-.388 2-.195 1-.472 2-.278 1-.222 1-.5 2-.5 2-.25 1-.306 2-.083 2v9l.083 2 .139 1 .472 2 .695 2 .444 1 .445 1 1.111 2 .639 1 1.361 2 .75 1 1.5 2 1.583 1.917.861.861.945.833 1.972 1.583 1 .806 2 1.528 1 .639 2 1.222 2 1.222 1 .556 1 .555 1 .445 1 .444 2 .778 2 .805 1 .417 2 .695 1 .305 1 .25 1 .278 2 .472 2 .389 2 .389 1 .222 2 .306 1 .055 2 .028 1 .028 1 .055 2 .306 1 .222 2 .306 1 .055 2 .028h53l.611-2.056.528-1.944.25-1 .305-1 .306-1 .333-1 .667-2 .667-2 .361-1 .361-1 .444-1 .417-1 .528-1 .472-1 .583-1 .556-1 1.222-2 1.195-2 .583-1 .639-1 .639-1 1.333-2 1.389-2 .75-1 1.5-2 .75-1 1.694-2 1.834-2 .861-1 1.611-2 1.694-2 .945-1 1.972-2 1-1 2-2 7-7 2-2 9-9 2-2 1-1 2-1.972 1-.945 2-1.694 1-.778 2-1.694 1-.945 2-1.972 2-2 1-1 2-1.972 1-.945 2-1.694 1-.778 2-1.694 1-.945 1-.972 2-2 2-2 1-1 1.972-1.917.945-.861.861-.805 1.611-1.417.833-.694 1.806-1.528.972-.861 1-.945 1-.972 2-2 2-1.972 1-.945 2-1.694 1-.778 2-1.694 1-.945 1-.972 2-2 2-2 1-1 2-1.972 1-.945 2-1.694 1-.778 2-1.694 1-.945 2-1.972 1-1 2-2 2-1.972 1-.945 2-1.694 1-.778 2-1.694 1-.945 1-.972 2-2 2-1.972 2-1.806 1-.833 1.917-1.611 1.611-1.806.611-.972.583-1 .722-2 .056-1-.083-1-.389-.972-1.278-1.778-1.778-1.306-.972-.416-2-.139-2 .722-2 1.306-2 1.666-1 .945-2 1.972-1 1-3 3-1 1-2 1.972-1 .945-2 1.694-1 .778-2 1.694-1 .945-2 1.972-1 1-3 3-2 1.972-1 .945-2 1.694-1 .778-2 1.694-1 .945-2 1.972-1 1-3 3-1 1-2 1.972-1 .945-2 1.694-1 .778-2 1.694-1 .945-2 1.972-2 2-2 2-1 1-1 1-2 1.972-1 .945-2 1.694-1 .778-2 1.694-1 .945-1 .972-2 2-3 3-1 1-1.972 1.917-.945.861-1.694 1.528-.778.694-.833.694-1.806 1.528-.972.861-2 1.917-1 1-2 2-2 2-1 .972-2 1.695-1 .611-1 .361-1 .167-2-.223-1-.277-2-.695-1-.417-1-.388-1-.417-2-.778-2-.861-1-.5-2-.861-2-.778-2-.861-1-.528-2-1-1-.444-1-.556-1-.444-1-.556-1-.444-1-.556-2-1-1-.472-1-.583-1-.556-2-1.222-1-.583-2-1.195-2-1.222-2-1.195-1-.583-2-1.278-1-.666-2-1.334-2-1.333-1-.694-1-.695-1-.75-1-.722-2-1.528-1-.805-2-1.612-2-1.583-1-.833-2-1.778-1-.917-2-1.694-1-.778-2-1.694-1-.945-2-1.972-2-2-1-1-1.972-2-.945-1-1.694-2-.778-1-.833-1-1.722-2-1.667-2-.75-1-1.5-2-.75-1-.667-1-1-2-.111-2 .806-2 .611-1 1.305-2 .667-1 1.389-2 1.472-2 .75-1 .695-1 1.388-2 .695-1 1.472-2 .778-1 .722-1 .778-1 .722-1 .778-1 .722-1 .778-1 1.5-2 .722-1 .778-1 .722-1 .778-1 .722-1 .778-1 1.5-2 .722-1 .778-1 1.472-2 .695-1 1.388-2 .695-1 1.472-2 .75-1 1.361-2 1.195-2 .555-1 .806-2 .361-2-.139-1.972-.25-.945-1-1.583-1.583-1-1.917-.333-1 .111-1.917.666-1.694 1.306-1.528 1.778-.722.972-1.445 2-.694 1-1.333 2-2 3-.667 1-1.389 2-1.472 2-.75 1-1.389 2-1.333 2-.667 1-1.333 2-.667 1-.694 1-.695 1-.75 1-1.472 2-1.389 2-1.333 2-3.334 5-1.333 2-1.389 2-.75 1-1.472 2-1.389 2-1.333 2-3.334 5-1.333 2-1.389 2-1.472 2-.75 1-.695 1-.694 1-.667 1-1.333 2-1.389 2-.75 1-1.472 2-.695 1-1.388 2-.695 1-1.472 2-1.528 2-.805 1-1.612 2-.805 1-1.528 2-.722 1-.778 1-.75 1-.805 1-1.612 2-1.583 2-1.611 2-1.611 2-.778 1-1.694 2-.945 1-.972 1-2 2-2 2-1 .972-1 .945-1.944 1.639-1.556 1.194L228 227m-70 165 1.5 1.056.556.333 1.944 1.305 1 .695 1 .75 2 1.5 1 .722 1 .778 2 1.5 1 .75 2 1.694 2 1.834 1 .861 2 1.611 2 1.694 1 .945 1 .972 2 2 5 5 1 1 2 2 2 2 1.972 2 .945 1 1.694 2 .778 1 1.611 2 1.611 2 1.528 2 .722 1 .778 1 .722 1 .778 1 1.472 2 .695 1 .694 1 1.333 2 4 6 4 6 1.334 2 .666 1 .639 1 .639 1 1.195 2 .583 1 1.278 2 .666 1 2 3 1.334 2 .666 1 1.306 1.889.722.805.389.528L234 478v2l-1.5.778-1.472 1.333L229.5 484l-1.083 2-.723 2-.277 1-.334 2-.055 1 .055 2 .389 2 .389 1 .417 1 1.194 1.972 1.611 1.778.945.778L234 503.75l1 .472.944.528 1 .417.556.333 1.5.5-1.806 2.056-.75 1L235.5 511l-.417 2v2l.417 2 1 2 .75.972.833.945 1.917 1.666 1 .723 2 1.388 1 .695 2 1.472 1 .778 2 1.5 1 .722 1 .778 1 .722 1 .778 1 .722 1 .778 1 .722 2 1.5 1 .778 1 .722 1 .778 1 .722 1 .778 1 .722 1 .778 1 .722 2 1.5 1 .778 2 1.5 1 .722 1 .778 2 1.472 1 .695 2 1.388 1 .695 2 1.472 1 .778 1 .722 2 1.5 1 .75 2 1.361 1 .639 1 .556 1 .555 2 .889 1 .361 1 .334 1 .277 2 .306 2-.111 1-.195 1-.277 2-.723 1-.5 1-.583 1.917-1.583L309.5 556l1-2 .25-1 .167-1 .083-1.944V548l1.5 1 .556.222 1 .584.944.416 1 .556 1 .444 1 .556 2 1 1 .444 1 .556 1 .444 2 1 1 .528 1 .417 1 .444 2 .778 2 .861 1 .5 2 .861 2 .778 2 .805 1 .417 1 .361 1 .361 1 .334 2 .666 1 .334 1 .361 1 .361 2 .805 1 .417 2 .722 2 .667 4 1.333 3 1 2 .667 2 .611 1 .25 2 .528 1 .305 2 .612 1 .305 2 .528 2 .472 1 .195 2 .388 1 .195 1 .25 1 .222 1 .278 2 .472 1 .195 2 .388 1 .195 1 .222 2 .306 1 .055 2 .028h10l2-.028 1-.055 2-.334 1-.277 2-.695 2-.861 1-.528 1-.472 2-1.194 1-.723 1-.694 1.917-1.528 1.694-1.694.75-.945 1.472-1.972.723-1 1.166-2 .445-1 .444-1 .361-1 .695-2 .639-2 .305-1 .25-1 .5-2 .25-1 .306-2 .055-1 .028-2v-2l-.028-1-.055-1-.306-2-.417-2-.388-2-.223-1-.277-1-.639-2-.695-2-.361-1-.444-1-.445-1-.555-1-.556-1-1.222-2-1.222-2-.611-1-.723-1-.694-1-1.528-2-1.611-2-1.611-2-.778-1-1.694-2-.945-1-1.944-2-.945-1-1.694-2-.778-1-1.694-2-.945-1-1.972-2-1-1-3-3-1-1-1.972-2-.945-1-1.694-2-.778-1-1.667-2-.888-1-1.667-2-1.528-2-.722-1-.778-1-.722-1-.778-1-1.472-2-.695-1-1.361-2-.666-1-1.334-2-2-3-.666-1-1.334-2-.639-1-.583-.944-.472-1-.306-.556L375 455h4l1-1-.028-1.5-.194-1.556-.195-.944-.583-2-.667-2-.361-1-.361-1-.417-1-.805-2-.361-1-.361-1-.334-1-.666-2-.334-1-.361-1-.361-1-.417-1-.805-2-.722-2-.334-1-.666-2-.334-1-.722-2-.805-2-.417-1-.722-2-.334-1-1-3-.333-1-.694-2-.417-.972-.528-.917-1.472-1.389-1.889-.611-1.944-.055-1 .194-.556.028-1.5.722-.444-1.5-.223-.556-.333-1-.583-1.944-.223-1-.388-2-.417-2-.333-2-.112-1-.361-1.944L352 390l2-.25.556-.028L356 389v-4l-.028-2-.055-1-.306-2-.222-1-.333-2-.278-2-.167-1-.389-2-.194-2-.056-2-.055-1-.306-2-.389-2-.139-1-.166-2-.139-1-.389-2-.167-1-.278-2-.333-2-.222-1-.195-1-.388-2-.195-1-.389-2-.139-1-.166-2-.139-1-.389-2-.306-2-.166-2-.139-1-.195-1-.694-2-1.195-2-.805-.972-1.889-1.722-2-1.195-1-.389-1-.305-2-.334-2-.083h-49l-1-.028-1-.055-2-.306-1-.222-2-.306-1-.055-2-.028-2-.028-1-.055-2-.306-2-.389-1-.139-2-.166-2-.334-1-.277-2-.612-1-.305-2-.556-1-.277-1-.389-2-.778-2-.778-1-.444-1-.417-1-.528-2-1-1-.444-1-.556-1-.472-2-1.139-1-.639-2-1.361-1-.75-2-1.5-1-.75-2-1.694-1-.945-2-1.972-.972-1-1.806-2-.805-1-1.417-2-.667-1-1.25-2-1.027-2-.417-1-.445-1-.388-1-.778-2-.639-2-.25-1-.5-2-.25-1-.306-2-.055-1-.028-2v-4l.028-1 .055-1 .306-2 .222-1 .167-1 .166-1 .112-1 .333-2 .25-1 .222-1 .278-1 .472-2 .195-1 .388-2 .417-2 .195-1 .388-2 .195-1 .222-1 .306-2 .055-1v-2l-.055-1-.334-2-.583-2-.333-1-.334-1-.722-2-.444-1-.445-.972-1.194-1.722-1.611-1.195-1.917-.694-2-.334-2-.083h-5l-2 .083-1 .139-1 .195-1 .277-2 .695-1 .417-2 .805-2 .778-1 .444-1 .445-1 .555-1 .556-2 1.222-1 .583-2 1.195-2 1.222-2 1.195-1 .583-2 1.278-1 .666-3 2-3 2-1 .667-2 1.389-1 .75-2 1.472-1 .695-2 1.388-1 .695-2 1.472-1 .778-1 .75-1 .805-2 1.612-2 1.583-2 1.611-2 1.611-1 .778-1 .805-2 1.612-2 1.583-1 .833-1 .861-2 1.889-1 .945-2 1.694-1 .778-2 1.694-1 .945-1 .972-1.917 2-1.694 2-.778 1-1.667 2-.888 1-1.667 2-.75 1-.778 1-1.472 2-.695 1-1.361 2-1.305 2-.639 1-1.139 2-.472 1-.556 1-.444 1-.556 1-.444 1-.556 1-.444 1-.556 1-.444 1-.528 1-.861 2-.361 1-.639 2-.25 1-.5 2-.25 1-.333 2-.112 1-.333 2-.222 1-.306 2-.027 1 .027 1 .306 2 .194 1 .028 2-.694 2-.556 1-1.083 2-.889 2-.361 1-.695 2-.333 1-.583 2-.195 1-.111 1 .111 2 .195 1 .611 2 .805 2 .445 1 1.194 2 1.611 2 1.834 2 .861 1 1.611 2 .833 1 .861 1 1.917 2 2 2 6 6 2 2 1 1 1.917 2 .861 1 1.611 2 1.694 2 .945 1 .972 1 2 2 1 1 2 1.917 1 .833 1 .778 2 1.194 1 .417 1 .389 2 .389 1 .055 2-.055 2-.334 1-.277 2-.723 1-.5 1.889-1.277 1.333-1.334L158 392z" style="fill:#e05314;stroke:none"/><path d="m350 464-1.5.028-1.556.194-.944.195-1 .277-2 .612-1 .305-2 .528-1 .25-2 .611-2 .667-1 .333-2 .611-2 .528-1 .25-1 .305-1 .306-2 .667-3 1-1 .333-2 .611-2 .528-1 .25-1 .305-2 .612-1 .305-1 .25-2 .5-1 .222-2 .111-2-.388-1-.334-2-.805-1-.417-1-.528-1-.472-2-1.139-2-1.305-1-.723-1-.805-1-.861-1.917-1.917-1.666-2-.723-1-1.305-2-.583-1-1.195-2-1.222-2-.556-1-.583-1-.472-1-1-2-.556-1-.972-2-.417-1-.444-1-.695-2-.472-2-.111-2 .361-2 .806-2 .583-1 1.389-2 .833-.972 1.917-1.722 2-1.195 2-.778 2-.722 2-.778 1-.389 2-.583 1-.25 2-.611 1-.333 2-.667 1-.306 1-.305 1-.25 2-.528 2-.611 2-.667 5-1.666 2-.667 1-.306 1-.305 2-.528 1-.25 2-.611 1-.333 2-.667 2-.611 1.944-.556.556-.083 1.5-.75-.5-1.5-.306-.556-.388-1-.778-1.944-.639-2-.528-2-.25-1-.305-1-.612-2-.277-1-.361-2-.084-.944-.222-1-.028-.556L325 394l-1.5.083-.556.139-1 .167-1.944.389-1 .139-2 .166-1 .139-2 .389-2 .306-1 .055-2 .028-1 .028-1 .055-2 .306-1 .222-2 .333-1 .112-2 .333-1 .222-2 .306-2 .111-1 .055-2 .306-1 .222-2 .306-1 .055-2 .111-2 .306-1 .222-2 .306-1 .055-2 .056-1 .055-2 .306-1 .222-2 .306-1 .055-2 .056-1 .055-2 .306-1 .222-2 .306-2 .166-1 .139-2 .389-2 .306-2 .166-1 .139-2 .389-1 .167-1 .139-2 .083h-4l-2-.083-1-.167-1-.222-1-.389-1-.417-2-1.194-2-1.611-.972-.945L229.25 397l-.778-1-1.222-2-.472-1-.556-1-.444-1-.556-1-.444-1-1-2-.528-1-.417-1-.444-1-.778-2-.805-2-.778-2-.639-2-.25-1-.5-2-.25-1-.306-2-.083-2 .028-1 .222-2 .222-1 .389-1 .417-1 1.194-2 .778-1 1.778-1.917L225 355.5l2-1.083 2-.723 1-.277 2-.334 1-.055 2-.111 2-.306 1-.222 2-.306 1-.055 2-.056 1-.055 2-.306 1-.222 2-.306 1-.055 2-.111 2-.306 1-.222 2-.306 1-.055 2-.111 2-.306 1-.222 2-.333 1-.112 2-.333 1-.222 2-.306 1-.055 1-.028 2-.028 1-.055 2-.306 2-.389 1-.139 2-.166 1-.139 2-.389 2-.306 1-.055 2-.056 1-.055 2-.306 1-.222 2-.306 1-.055 2-.056 1-.055 2-.306 2-.389 1-.139 2-.111 1-.055 2-.306 2-.389 2-.194 2-.056 1-.055 2-.306 2-.389 1-.139 2-.166 1-.139 1-.167 2-.389 1-.139 1-.055 2-.056 1-.055 1.944-.361 1.556-.584L339 339l-.25-1.444-.333-1.112L338 335h-10l-2 .028-1 .055-2 .306-1 .222-2 .306-1 .055-2 .028-1 .028-1 .055-2 .306-1 .222-2 .306-1 .055-2 .028h-24l-2-.028-1-.055-2-.306-1-.222-2-.306-1-.055-2-.056-1-.055-2-.306-1-.222-2-.333-1-.112-2-.333-1-.222-2-.333-1-.112-2-.333-1-.222-1-.195-2-.388-1-.195-1-.222-2-.389-2-.417-1-.277-2-.612-1-.305-2-.528-1-.222-1-.278-1-.222-1-.278-2-.5-1-.222-2-.583-2-.806-1-.528-2-1-1-.472-2-1.139-1-.639-2-1.389-2-1.666-1-.945-1.972-1.972-1.806-2-.805-1-1.417-2-.667-1-1.305-2-.639-1-1.139-2-.472-1-1-2-1-2-.528-1-.861-2-.778-2-.805-2-.417-1-.361-1-.361-1-.334-1-.666-2-.334-1-.722-2-.805-2-.417-1-.361-1-.361-1-.334-1-.666-2-.334-1-.722-2-.805-2-.417-1-.722-2-.334-1-.722-2-.417-1-.805-2-.778-2-.444-1-.445-1-.555-1-.556-1-1.222-1.944-.333-.556L186 253h-1.5l-1.556.083-1.944.389-1 .389-1 .389-2 .972-1 .556-1 .444-2 1.028-1 .583-1 .556-2 1.222-2 1.195-1 .583-1 .639-1 .639-2 1.333-2 1.389-1 .75-1 .722-1 .778-1 .722-1 .778-1 .722-2 1.528-2 1.611-2 1.611-1 .778-2 1.694-1 .945-2 1.972-2 2-2 2-.972 1-.945 1-1.694 2-.75 1-1.5 2-.75 1-1.361 2-.639 1-1.139 2-.472 1-.556 1-.444 1-1 2-.528 1-.778 2-.278 2 .445 2 1 2 1.111 2 .5 1 1.139 2 .639 1 1.305 2 1.361 2 .695 1 1.472 2 .75 1 .695 1 .694 1 .667 1 1.333 2 1.417 2 .777 1 1.612 2 .805 1 1.528 2 .722 1 .778 1 .75 1 1.667 2 .888 1 1.667 2 1.611 2 .861 1 1.834 2 1.694 2 .778 1 1.694 2 .945 1 1.944 2 .945 1 1.694 2 .778 1 1.694 2 .945 1 1.972 2 2 2 .972 1 .945 1 1.694 2 .778 1 1.694 2 .945 1 1.972 2 4 4 10 10 3 3 2 2 1.917 2 .861 1 1.611 2 1.694 2 .945 1 1.972 2 2 2 1 1 1.972 2 .945 1 1.694 2 .778 1 1.694 2 .917 1 1.778 2 1.611 2 1.667 2 .888 1 1.667 2 .778 1 .805 1 1.612 2 .805 1 .778 1 .805 1 1.612 2 .805 1 1.528 2 .722 1 .778 1 .722 1 .778 1 .722 1 .778 1 .722 1 .778 1 1.5 2 .722 1 .778 1 1.5 2 .722 1 .778 1 1.472 2 .695 1 1.388 2 .695 1 .75 1 1.472 2 .695 1 1.388 2 .695 1 1.472 2 .778 1 .722 1 .778 1 .722 1 1.528 2 .805 1 1.612 2 1.583 2 1.667 2 .888 1 1.667 2 .778 1 1.694 2 .945 1 1.972 2 1 1 2 2 2 2 1 1 2 1.972 1 .945 2 1.694 1 .778 2 1.694 1 .945 2 1.889 1 .861 1 .833 2 1.583 2 1.612 1 .805 2 1.528 1 .722 1 .75 1 .695 1 .694 1 .667 3 2 3 2 1 .666 1 .639 1 .639 1 .583 2 1.195 2 1.222 2 1.139 1 .5 2 1.139 2 1.222 1 .556 1 .583 1 .472 2 1 1 .556 1 .444 1 .556 2 .972 1 .417 1 .444 2 .778 1 .444 1 .417 2 .972 1 .556 1 .444 1 .528 2 .861 2 .778 2 .861 1 .5 2 .861 2 .778 2 .805 1 .417 2 .722 1 .334 2 .666 1 .334 2 .722 1 .417 1 .388 2 .778 2 .639 2 .528 1 .25 1 .305 2 .612 1 .305 2 .528 1 .25 1 .305 2 .612 1 .305 2 .528 1 .222 2 .5 1 .278 2 .472 1 .195 2 .388 1 .195 2 .389 1 .139 1 .055 2-.055 2-.334 1-.305 1.972-.917.945-.667 1.611-1.722 1.194-1.972.889-2 .361-1 .695-2 .333-1 .583-2 .334-2 .055-1 .028-2v-6l-.083-2-.167-1-.222-1-.778-2-.528-1-1-2-.472-1-1.139-2-1.305-2-.695-1-.75-1-1.5-2-.75-1-1.694-2-.945-1-1.972-2-1.972-2-.945-1-1.694-2-1.611-2-.861-1-1.917-2-1-.972-1-.917-2-1.389-2-.694-1-.222-1-.195-2-.472-1-.278-1-.25-1-.305-1-.306-2-.667-2-.722-2-.861-1-.528-2-1-1-.472-2-1.139-2-1.305-1-.723-2-1.666-1-.945-1-.972-2-2-2-2-1-1-1.917-2-1.666-2-1.417-2-.667-1-1.333-2-1.333-2-.639-1-.639-1-1.111-1.944-.445-1-.333-.556-.5-1.5z" style="fill:#fffdfa;stroke:none"/><path d="m559 279-.25 1.5-.389 1.556-.222.944-.306 1-.277 1-.417 1-.917 2-.472 1-1.222 2-1.611 1.889-1.917 1.472-1 .528-1 .389-1 .305-2 .306-2-.139-1-.25-1-.444-2-1.306-1-.833-1.972-1.917-.945-1-.861-.972-1.611-1.778-1.639-1.306-1.472-.666L529 285l-1.139 1.5-.583 1.556-.25 1.944-.028 2-.083 2-.334 2-.277 1-.723 2-1.083 2-1.583 1.972-1.917 1.722-2 1.195-2 .611-1 .056-2-.278-2-.611-2-.75-1-.473-1-.527-1.944-1.278-1.556-1.222L503 300l-1.5.278-1.5.583-.5.167-1.5.972.083 1.5.139.556.167 1 .472 1.944.278 1 .472 2 .139 1 .083 1-.305 2-.389 1-1 2-.611.972-1.611 1.778-.945.778-1.972 1.194-2 .806-2 .361h-1l-2-.306-1-.277-2-.695-2-.861-1-.5-2-.75-1.944-.139-1 .333L473 321l.25 1.5.167.556.277 1 .695 1.944.417 1 .388 1 .417 1 .695 2 .277 1 .195 1 .111 2-.361 2-.806 2-1.194 1.972-1.611 1.778-.945.75-.972.583-2 .889-2 .584-2 .138-1-.111-2-.444-1-.278-2-.472-2-.195-.944.112-1.556.555L453 346l.278 1.5.222.556.972 1.944 1.389 2 .75 1 1.306 2 1 2 .361 1 .416 2-.138 2-.278 1-.389 1-.528 1-1.472 1.972-.917.945L454 369.5l-1 .583-2 .889-2 .611-2 .25-2-.194-1-.167-1.917.111-1.583.917-.556.694-.444.834L439 376l1.5 1.417.556.416 1 .834.944.722 2 1.694 1.889 1.917.805 1 1.195 2 .389 1 .305 1 .334 1.944.055 1L450 393h19l.444-1.5.223-.556.666-1.944.695-2 .361-1 .861-2 .5-1 .889-2 .417-1 1-2 1.138-2 .639-1 1.417-2 1.778-1.972L482 369.25l1-.75 2-1 1-.222 1-.111 2 .333 2 1 2 1.583 1.972 1.917.945 1 1.694 2 .778 1 1.611 2 1.611 2 .778 1 1.667 2 1.722 2 1.611 2 1.694 1.889 1.917 1.389 1 .389 1 .222 2 .111h24l2-.028 1-.055 2-.306 1-.222 2-.306 1-.055 2-.028h13l2-.083 2-.306 1-.222 2-.222 2 .222 1 .222 2 .306 2 .166 2 .334 2 .583 1 .333 1 .334 2 .722 2 .861 1 .528 1 .472 2 1.222 1 .778 2 1.694.972.834 1.806 1.611.833.833 1.583 1.806.806.972 1.583 2 .723 1 1.305 2 .556 1 .583 1 .472 1 .528 1 .861 2 .361 1 .639 2 .25 1 .5 2 .25 1 .306 2 .083 2-.028 1-.055 1-.306 2-.222 1-.195 1-.388 2-.223 1-.583 2-.667 2-.361 1-.389 1-1 2-1.194 2-1.222 2-.639 1-1.611 2-.945 1-1.972 2-2 1.917-1 .861-1 .805-1 .723-2 1.305-2 1.139-1 .472-2 1-1 .528-1 .417-1 .444-2 .695-1 .277-1 .223-2 .388-1 .195-1 .222-2 .306-1 .055-1 .028h-4l-2-.028-1-.055-2-.306-1-.222-2-.306-1-.055-1-.028h-2l-2-.028-1-.055-2-.306-1-.222-2-.306-1-.055-1-.028h-3l-2-.028-1-.055-2-.306-1-.222-2-.306-1-.055-2-.028h-5l-2-.028-1-.055-2-.306-1-.222-2-.306-2-.083h-9l-2 .028-2 .222-1 .25-2 1-2 1.583-2 1.834-2 1.666-1 .723-2 1.305-2 1.139-1 .472-2 .834-1 .25-2-.084-2-.639-1-.5-1.917-1.333-.833-.833-1.389-1.917-.583-1-.445-1-.444-1-.695-1.944-.277-1-.167-.556-.25-1.5h-25l-1.472 2.056-1.611 1.944-.945 1-1.861 2-1.389 2-.389.944-.305 1.556L439 472l1 1h3.056l1.944.083 2 .334 1 .277 2 .723 2 1.083 1 .75 1.917 1.778L456.5 480l.917 2 .111 1v1l-.389 2-.611 2-.472 1-.556 1-.75 1-.806 1-.861 1-1.361 2-.361 1v1.972l.361.917.611.778 1.695.916H456l2-.361 1-.139 2-.083h1l1 .028 2 .222 1 .25 2 1 1 .75.972.833 1.722 1.917.667 1 .528 1 .667 2 .138 1-.138 2-.25 1-.695 2-.805 2-.417 1-.695 1.944-.277 1-.167.556-.25 1.5 2.056 1.333 1 .361.944.112 2-.278 2-.722 1-.417 2-.695 1-.277 1-.195 1-.139 1-.055 2 .055 2 .417 1 .444 1 .556 1.972 1.583.945.945L495.5 528l.556 1 .444 1 .417 2v2l-.139 1-.167 1-.472 2-.278 1-.222.944-.389 1.556-.25 1.5 1.5.972.5.167 1.5.583 1.5.278 1.5-1.25 1.556-1.111 1.944-1.25 2-1.139 1-.472 1-.528 2-.75 2-.194 2 .388 2 .723 1.972 1.083 1.778 1.583.778.945.611.972.583 1 .806 2 .222 1 .167 1 .083 2v7l2.056.556 1 .111.944-.084 1-.333 2-1.361 1-.917 2-1.944 1-.945 2-1.583 2-1 1-.25 1-.167 2-.055 2 .222 1 .25 2 1 1.917 1.583 1.611 1.917 1.194 2 .806 2 .25 1 .416 2 .473 1.944.527 1.556.806 1.5 1.5-.111 1.472-.611 1.556-1.389L561.75 563l.5-1 1.222-2 1.611-2 1.917-1.889 1-.805 2-1.195 1-.389 2-.472 1-.083 2 .305 1 .389 1 .417 2 1.194 1.917 1.611 1.666 1.917.723 1 1.277 2 .528 1 .889 1.944.194.556.806 1.5h4l.806-1.5.166-.556.389-1 .306-.944.666-2 .695-2 .389-1 1.083-2 1.583-1.972.945-.945L601 551.5l2-1 1-.25 1-.167h2l1 .167 1 .222 2 .806 1 .583 1 .611 1.972 1.611.945.945.861.972 1.611 1.889 1.694 1.361.945.333.916.084 1-.111L625 559v-3.056l.028-1.944.055-1 .334-2 .277-1 .723-2 1.083-2 1.583-1.917L631 542.5l1-.583 2-.806 1-.194 2-.084 2 .195 2 .472 2 .917 1 .611 2 1.278 1 .583 1 .472 1.944.528.556.083 1.5.028 1-1v-2.056l-.028-1.944-.055-1-.306-2-.194-1-.111-2 .333-2 .25-1 .722-2 1.111-1.917.695-.861.805-.805.861-.723 1.917-1.277 1-.5 1-.417 1-.25 2-.222h1l1 .055 2 .334 2 .583 1 .333 2 .667 1.944.583 1.556.334 1.5.083 1.111-2.056.361-1-.028-1.944-.694-2-.5-1-.806-2-.583-2-.194-1-.223-2 .056-1 .528-2 .389-1 1.083-2 1.583-1.917L682 501.5l1-.583 2-.889 1-.334 2-.388 2 .111 2 .444 1 .278.944.222 1.556.389 1.5.25 1.333-2.056.361-1-.055-1.944-.945-2-1.472-2-.75-1-.611-1-.583-1-.806-2-.389-2-.027-1 .194-2 .25-1 1-2 .75-1 1.778-1.917.972-.833 1-.75 2-1.028 2-.611 1-.222 1-.222 1.944-.111 1 .138L710 473l1.306-2.056.305-1-.361-1.944-.583-1-1.695-2-1.944-2-1.778-2-.75-1-1-2-.417-2-.055-1 .055-2 .417-2 .444-1 .556-1 1.583-1.917 1.917-1.611 2-1.194 1-.417 2-.694 1-.306.944-.222 1.556-.389 1.5-.25v-5l-1.5-1-.556-.25-1-.611-.944-.528-1-.639-1.972-1.389-.945-.805-1.611-1.806-.611-.972-1-2-.389-1-.361-2v-1l.361-2 .806-2 .583-.972.611-.945 1.611-1.694.945-.75.972-.778 2-1.417 1.944-1.166 1-.445.556-.333 1.5-.5v-4l-1.5-.972-1.556-.667-1.944-.694-1-.334-2-.75-2-1.083-1.972-1.583-.917-.945-.805-.972-1.195-2-.694-2-.25-2 .111-1 .194-1 .806-2 .583-1 .611-1 1.611-1.972.945-.945 1.944-1.694.917-.778.778-.833.583-.861.306-1.889-.306-.917-1.361-1.389-1.889-.611-1-.083-2-.056-1-.055-2-.334-1-.277-2-.723-2-1.083-1.917-1.583-.833-.945-.75-.972-1-2-.417-2-.055-2 .055-1 .417-2 .972-2 .695-1 1.444-2 1.278-2 .472-1 .528-1.944.083-.556.028-1.5-1-1h-1.5l-1.556.083-.944.139-2 .389-2 .306h-2l-1-.139-1-.195-2-.611-2-.889-.972-.583-1.778-1.583-.778-.945-1.194-1.972-.417-1-.611-2-.139-1 .111-2 .195-1 .277-1 .695-2 .417-1 .722-2 .278-2-.473-1.944-.194-.556L677 321l-1.5.278-1.556.583-.944.389-1 .5-2 .861-2 .695-2 .472-1 .111h-1l-2-.389-1-.417-1.972-1.111-1.806-1.389-.805-.805-1.334-1.806-1-1.972-.666-2-.306-2v-1l.278-2 .222-1 .306-2 .055-1 .028-1.944V302h-1.5l-1.556.111-1.944.583-1 .556-2 1.361-2 1.361-2 1.139-2 .833-1 .278-2 .139-1-.139-2-.639-2-1.083-1.917-1.583-.833-.945-.75-.972-1.028-2-.611-2-.222-1-.25-1-.278-2v-1l.278-1.944.361-1.556.25-1.5-1.5-1.139-1.556-.472-1.861.361-1.694 1.361-1.611 1.861-.861.945-1.917 1.666-1 .695-1 .639-2 1-1 .361-1 .305-2 .25-2-.305-1-.389-1-.417-1.972-1.194-1.778-1.611-.778-.945-.611-.972-.583-1-.889-2-.361-1-.639-2-.25-1-.611-1.917-1.028-1.583-.694-.556-1.334-.666L591 279l-.972 1.5-.195.556-.472 1-.75 1.944-.889 2-.583 1-.611 1-.778.972-.833.945L583 291.5l-2 1.083-1 .389-1 .334-1 .25-2 .111-2-.528-1-.417-1.972-1.194-1.778-1.611-.778-.945-1.194-1.972-.889-2-.361-1-.722-1.972-.889-1.75-1.028-1.195L562 278l-2 1h-1z" style="fill:#e05314;stroke:none"/><path d="m568 313.389-1 .222-2 .306-1 .055-2 .111-1 .139-2 .389-1 .195-2 .388-1 .195-1 .222-2 .389-2 .417-2 .583-1 .306-1 .305-1 .25-2 .528-2 .639-2 .778-2 .805-2 .778-1 .417-2 .805-1 .389-2 .833-1 .445-1 .555-1 .556-2 1.222-2 1.139-1 .5-2 1.139-2 1.278-1 .666-2 1.334-2 1.333-1 .694-1 .723-2 1.666-1 .945-.972.972-.945 1-1.583 2-1 2-.25 1-.222 2 .055 2 .167 1 .25 1 1 1.972.75.945 1.778 1.611L508 356.75l1 .472 1 .528 2 .861 2 .778 1 .444 2 .945 1 .444 1 .556 1 .444 1 .528 1 .417 1 .444 2 .778 2 .861 1 .528 1 .444 1 .556 2 1 1 .444 1 .556 1 .444 1 .556 2 .972 1 .417 1 .444 2 .778 2 .805 1 .417 2 .695 1 .277 1 .223 2 .388 2 .417 2 .306 1 .055 1 .028h4l2-.083 1-.139 2-.417 1-.222 2-.583 2-.806 1-.528 2-1.055 1-.556 1-.639 2-1.389 2-1.666 2-1.917 1-1 1-1 1-1 1.917-2 .861-1 1.583-2 .778-1 .722-1 .778-1 .722-1 1.5-2 .75-1 .695-1 .694-1 .667-1 1.333-2 1.389-2 .75-1 1.472-2 .695-1 .694-1 .667-1 1.333-2 1.333-2 .639-1 1.195-2 .972-2 .389-1 .361-2v-1l-.389-2-.444-1-1.306-1.972-.833-.945L605 317.5l-2-1-1-.25-2-.306-2-.333-1-.222-1-.195-2-.388-1-.195-1-.222-2-.306-1-.055-2-.028h-2l-1-.028-1-.055-2-.306-1-.222-2-.306-1-.055-1-.028h-4l-2 .083-2 .306m63 18.083-1 .389-1 .417-1.972 1.194-1.778 1.611-.75.945-1.083 1.972-.723 2-.555 2-.278 1-.222 1-.278 1-.222 1-.5 2-.278 1-.222 1-.278 1-.222 1-.278 1-.222 1-.278 1-.222 1-.278 1-.222 1-.528 2-.611 2-.611 2-.528 2-.222 1-.278 1-.222 1-.528 2-.305 1-.306 1-.583 2-.417 2-.389 2-.222 1-.306 2-.055 1-.028 2v4l.083 2 .306 2 .25 1 .528 2 .277 1 .834 2 .555 1 1.195 2 1.389 2 .805 1 1.806 1.917 1.972 1.666 1 .723 2 1.305 2 1.139 1 .472 1 .556 1 .444 1 .528 2 .861 1 .361 1 .361 1 .334 2 .666 1 .334 1 .361 1 .361 2 .805 1 .417 2 .722 2 .667 3 1 1 .333 2 .695 1 .361 2 .805 1 .417 1 .361 1 .361 2 .667 3 1 1 .333 2 .667 1 .306 1 .277 2 .334 2 .083 1-.028 2-.194 2-.5 1.972-.917.945-.667 1.583-1.722 1.083-1.972.723-2 .277-1 .334-2 .083-2-.028-1-.055-1-.306-2-.222-1-.306-2-.111-2-.055-1-.306-2-.222-1-.389-2-.194-1-.195-1-.472-2-.278-1-.25-1-.305-1-.306-1-.333-1-1-3-1-3-.334-1-.361-1-.361-1-.861-2-.528-1-.444-1-.556-1-.444-1-.556-1-1-2-.472-1-1.139-2-1.222-2-1.195-2-.583-1-.639-1-.639-1-1.333-2-.694-1-.695-1-.75-1-.722-1-1.528-2-1.611-2-1.611-2-.778-1-1.694-2-.945-1-1.972-2-2-2-2-2-1-.972-1-.945-2-1.694-1-.75-2-1.472-1-.723-2-1.166-1-.445-1-.444-2-.695-1-.277-2-.25-2 .305M254 362l.278 1.5.583 1.556.389.944.528 1 1 2 .444 1 .556 1 .972 2 .417 1 .444 1 .778 2 .444 1 .417 1 .528 1 1 2 .444 1 .556 1 1 2 .416.944.584 1 .222.556 1 1.5 2.056-.028 1-.055 1.944-.306 1-.222 2-.306 1-.055 2-.056 1-.055 2-.306 1-.222 2-.306 1-.055 2-.111 1-.139 2-.389 1-.167 2-.278 2-.333 1-.222 2-.306 2-.083h1l2-.083 1-.139 1-.167 2-.389 1-.139 2-.166 2-.306 2-.389 1-.139 2-.166 1-.139 2-.389 2-.306 1-.055 2-.056 1-.055 2-.306 2-.389 1-.139 2-.166 1-.139 1-.167 2-.389 1-.139 1-.055 2-.139.944-.167 1.556-.583L345 379l-.583-2.056L344 375l-.389-2-.222-1-.389-2-.389-2-.389-2-.139-1-.166-2-.306-2-.389-2-.139-1-.166-2-.139-1-.389-1.944-.139-.556-.25-1.5-2.056.083-1.944.306-1 .222-2 .306-1 .055-2 .111-1 .139-2 .389-2 .306-1 .055-2 .056-1 .055-2 .306-1 .222-2 .306-2 .111-1 .055-2 .306-1 .222-2 .306-1 .055-2 .111-2 .306-2 .389-1 .139-2 .166-1 .139-2 .389-2 .306-1 .055-2 .056-1 .055-2 .306-2 .389-1 .139-2 .166-1 .139-2 .389-2 .306-1 .055-2 .056-1 .055-2 .306-1 .222-2 .306-2 .111-1 .055-2 .306-1 .222-2 .306-2 .111-.944.028-1 .194-.556.028-1.5.722m-15 31h5l2-.028 1-.055 2-.306 1-.222 1.944-.306 1-.055L255 392l-.083-1.5-.389-1.556-.778-1.944-.528-1-.444-1-.556-1-.444-1-1-2-.556-1-1-2-.444-1-.556-1-.972-2-.417-1-.444-1-.778-2-.417-1-.805-2-.722-1.944-.223-.556L243 363h-4l-2 .083-2 .306-1 .25-1.972.611-1.695 1.083-.611.778-.583 1.889-.028 1 .278 2 .25 1 .5 2 .25 1 .305 1 .695 2 .417 1 .805 2 .778 2 .861 2 .528 1 .472 1 1.194 2 .695.944.639 1 .472.556.75 1.5m99-1-1 1v2.056l.028 1 .055.944.306 2 .472 2 .278 1 .222 1 .278 1 .222 1 .528 2 .639 1.944.166.556.806 1.5 1.444-.472.556-.361 2-1.167-.583-2.056L344 405l-.389-2-.222-1-.333-2-.112-1-.333-2-.222-1-.306-1.944L342 392h-4z" style="fill:#fffdfa;stroke:none"/><path d="m371 400 .278 1.5.194.556.722 1.944.417 1 .778 2 .805 2 .417 1 .361 1 .695 2 .333 1 1 3 .667 2 2.333 7 1 3 .667 2 .722 2 .417 1 .805 2 .722 2 .667 2 1.667 5 .666 2 .334 1 .333.944.333 1 .223.556.444 1.5h2.056l1.944-.028 1-.055 2-.306 2-.389 1-.139 2-.083h53l2 .028 1 .055 2 .306 1 .222 2 .306 1 .055 2 .028h15l2 .028 1 .055 2 .306 1 .222 2 .306 2 .083h15l2 .028 1 .055 2 .306 1 .222 2 .306 1 .055 2 .028h11l2 .028 1 .055 2 .306 1 .222 2 .306 1 .055 2 .028h6l2 .028 1 .055 2 .306 1 .222 2 .306 1 .055 2 .028h16l2-.083 2-.334 2-.583 1-.333 2-.695 1-.361 2-.861 1-.528 1-.472 2-1.222 1-.778 1-.833 2-1.917 1.917-2 .833-1 .778-1 1.222-2 .472-1 .528-1 .861-2 .722-2 .334-1 .639-2 .277-1 .334-2 .083-2v-1l-.083-2-.306-2-.25-1-.222-1-.583-2-.806-2-.528-1-.472-1-1.139-2-1.305-2-.723-1-1.666-1.972-.945-.945-1.972-1.666-2-1.389-1-.639-2-1.111-2-.889-1-.361-2-.639-1-.25-2-.5-1-.25-2-.306-1-.055-2-.028h-1l-2 .028-1 .055-2 .306-1 .222-2 .306-1 .055-2 .028h-14l-2 .028-1 .055-2 .306-2 .389-1 .139-2 .083H371z" style="fill:#e05314;stroke:none"/><path d="m568 414.417-1 .277-2 .723-.972.5-.945.583-.861.75-.805.833-1.334 1.917-.527 1-.473 1-.666 2-.334 2v2l.139 1 .195 1 .611 2 .889 2 .583.972 1.583 1.778.945.778 1.972 1.194 1 .417 1 .389 1 .222 1 .167 2 .083h1l2-.083 1-.167 1-.222 2-.806 1-.583.972-.611.945-.778 1.583-1.778 1.083-1.972.723-2 .472-2 .111-1-.111-2-.195-1-.277-1-.723-2-1.083-2-1.583-1.972-1.917-1.722-2-1.195-2-.694-2-.334-2-.055-1 .055-2 .334M307 433l.111 1.5.583 1.556 1.195 1.944.75 1 1.5 2 1.5 2 .722 1 .778 1 .722 1 1.528 2 .805 1 1.612 2 1.583 2 1.611 2 1.528 1.944L325 459l1.5-.25 1.556-.389.944-.222 1-.278 1-.25 1-.305 2-.612 1-.305 1-.25 2-.528 2-.611 1-.333 2-.667 1-.306 1-.305 2-.528 1-.25 2-.611 2-.667 1-.333 1-.306 1-.305 1-.25 2-.528 2-.611 2-.667.944-.333 1-.333.556-.223L366 447l-.028-1.5-.194-1.556-.195-.944-.277-1-.695-2-.417-1-.805-2-.778-2-.417-1-.805-2-.722-2-.334-1-.722-2-.417-1-.805-2-.778-2-.417-.944-.388-1-.306-.556-.5-1.5-1.5.083-.556.139-1 .195L351 419l-1 .333-1 .334-3 1-1 .333-2 .611-1 .25-2 .528-2 .611-1 .333-2 .667-5 1.667-2 .666-1 .334-2 .639-1 .305-2 .528-1 .25-1 .305-1 .306-1 .333-2 .667-1 .306-1 .305-1 .25-2 .528-1.944.639-.556.166-1.5.806m-20 7 .25 1.5.444 1.556.695 1.944.889 2 .555 1 .556 1 1.222 2 1.139 2 .5 1 1.222 2 .778 1 1.778 1.972 1.972 1.806 1 .805 2 1.306 2 .805 2 .278 1 .028 2-.083 1.944-.306 1.556-.361 1.5-.25-.361-1.5-.333-.556-.556-1-1.389-1.944-.75-1-.805-1-1.612-2-.805-1-.778-1-1.611-2-1.583-2-.723-1-1.388-2-.695-1-.75-1-1.472-2-1.306-1.944-.389-.556L296 437l-2.056.028-1 .055-1.944.417-.944.389-1.556.889L287 440m378 6.389-1 .222-2 .306-1 .055-2 .028h-3l-2 .028-1 .055-2 .306-2 .389-1 .139-2 .083h-11l-2 .028-1 .055-2 .306-1 .25-1 .222-1 .278-2 .5-1 .222-2 .583-2 .834-1 .555-2 1.195-2 1.389-1 .805-1.917 1.806-1.666 1.972-.723 1-.666 1-.639 1-1.111 2-.445 1-.444 1-.361 1-.639 2-.25 1-.5 2-.25 1-.306 2-.055 1-.028 1v21l.028 2 .055 1 .306 2 .222 1 .306 2 .055 1 .028 1v2l.028 2 .055 1 .306 2 .222 1 .333 2 .112 1 .444 2 1 1.972 1.583 1.722.945.667.972.528 2 .694 1 .195 2 .111 2-.306 1-.277 1-.334 1-.361 2-.889 1-.555 2-1.167 1-.611 2-1.195 1-.583 2-1.305 1-.723 1-.777 2-1.612 1-.805 2-1.528 1-.722 1-.778 1-.75 2-1.667 1-.888 2-1.667 1-.778 2-1.694 1-.945 2-1.972 2-2 2-2 .972-1 .945-1 1.694-2 .778-1 1.611-2 1.583-2 1.417-2 1.389-2 1.444-2 .723-1 1.25-2 .583-1 1.222-2 .556-1 .583-1 .472-1 1-2 .528-1 .861-2 .778-2 .861-2 .5-1 .861-2 .695-2 .277-1 .334-2 .055-1-.055-2-.167-1-.694-1.972-.556-.945-1.583-1.611-.945-.611-1.972-1-1-.389-2-.389-1-.055-1-.028h-1l-2 .083-2 .306M360 460l.25 1.5.167.556.666 1.944 1 2 1.25 2 .667 1 1.389 2 .75 1 1.5 2 .75 1 1.694 2 .945 1 1.972 1.917 1 .861 1 .805 2 1.389 1 .611.944.5 1.556.639 1.5.278-.694-1.5-.389-.556-.611-1-.639-.944-.667-1-1.389-2-.75-1-1.472-2-1.389-2-1.333-2-2-3-1.334-2-.666-1-.639-1-.639-1-1.139-1.944-.25-.556-1-1.5-1.5.25-1.5.361-.5.139-1.5.25m180 9.389-2 .417-1 .194-2 .417-2 .583-1 .333-2 .667-2 .667-1 .361-1 .361-2 .861-1 .5-2 .861-2 .778-2 .805-1 .417-2 .778-2 .861-1 .5-2 .861-2 .778-2 .861-1 .5-1 .417-1 .472-1 .444-2 1.223-1.889 1.722-.805.972-1.195 2-.694 2-.195 1-.111 1v1l.361 2 .806 2 1.194 2 .778 1 1.778 2 1.972 2 1 1 2 1.917 2 1.666 1 .723 2 1.388 1 .695 2 1.444 1 .723 2 1.25 1 .583 2 1.222 1 .556 1 .583 1 .472 2 1 1 .556 1 .444 1 .556 1 .444 2 1 1 .528 1 .417 1 .444 2 .778 2 .805 1 .417 2 .778 1 .417 1 .361 1 .389 2 .583 1 .25 1 .305 2 .612 1 .305 1 .25 1 .278 2 .472 2 .389 2 .389 1 .222 2 .306 1 .055 1 .028 2 .028 1 .055 2 .306 1 .222 2 .306 1 .055 1 .028 2-.083 2-.306 2-.417 1-.194 2-.472 1-.389 1-.417 1.917-1.194 1.583-1.611 1-1.917.389-2-.111-2-.195-1-.583-2-.333-1-.695-2-.361-1-.417-1-.805-2-.778-2-.444-1-.417-1-.528-1-.444-1-.528-1-.861-2-.778-2-.805-2-.417-1-.361-1-.361-1-.334-1-.722-2-.417-1-.805-2-.778-2-.861-2-.528-1-1-2-.444-1-.556-1-.472-1-1.222-2-.778-1-.833-1-1.917-1.972-2-1.778-1-.778-2-1.222-1-.472-1-.528-2-.806-1-.277-1-.306-2-.472-2-.306-1-.055-2-.028h-4l-2 .083-2 .306z" style="fill:#fffdfa;stroke:none"/><path d="m103 755-.972 1.5-.195.556-.472 1-.333.944-.611 2-.334 2-.083 2v7l.028 1 .055 1 .334 2 .611 2 .389 1 1.083 2 1.583 2 .945.972.972.945 2 1.611 2 1.194 1 .417 2 .694 2 .528 1 .25 2 .222 1.944-.277 1-.417L123 788v-2.056l-.028-1.944-.055-1-.306-2-.222-1-.306-2-.055-1-.028-2v-6l.028-2 .055-1 .306-2 .222-1 .195-1 .388-2 .195-1 .25-1 .222-1 .528-2 .305-1 .306-1 .667-2 1.333-4 2.667-8 .666-2 .334-1 .361-1 .361-1 .417-1 .805-2 .778-2 .861-2 .5-1 .861-2 .778-2 .861-2 .528-1 .444-1 .556-1 .972-2 .417-1 .444-1 .778-2 .444-1 .417-1 .972-2 .556-1 .444-1 .556-1 .444-1 1-2 .528-1 .417-1 .444-1 .695-2 .277-1 .334-2 .083-2-.028-1-.222-2-.25-1-1-1.889-1.583-1.389-1.917-.611-1-.083-2 .055-2 .306-1 .222-1 .195-2 .388-1 .195-2 .389-1 .139-2 .111-1 .055-2 .306-2 .417-2 .388-1 .223-1 .277-2 .695-2 .861-1 .5-2 .889-1 .417-2 1.027-2 1.334-2 1.666-1 .945-1.972 1.972-.945 1-1.611 2-1.222 2-.472 1-.528 1-.778 2-.194 1-.111 1 .333 2 1 1.889 1.583 1.389.945.361 1.972.111 2-.444 1-.334 1-.361 2-.861 1-.5 2-.861 1-.361 1-.361 1-.334 2-.666.944-.306 1-.389.556-.166L121 707l-.694 1.5-.362.556-1.138 1.944-.612 1-.583 1-1.278 2-.666 1-2 3-1.334 2-.666 1-.667 1-1.417 2-.777 1-1.612 2-1.583 2-1.694 2-.945 1-.972 1-2 2-2 2-2 1.917-2 1.666-1 .723-2 1.361-2 1.305-1 .639-1 .556-2 1.055-1 .528-2 .806-2 .583-1 .222-1 .25-2 .306-1 .055-1 .028-2-.083-1-.167-1-.222-1-.389-2-1-1-.611-1.972-1.611L62.25 744l-.778-1-1.222-2-.472-1-.528-1-.861-2-.695-2-.277-1-.334-2-.055-1-.111-2-.306-2-.222-1-.306-2-.083-2 .083-2 .306-2 .222-1 .306-2 .055-1 .028-2 .028-1 .055-1 .306-2 .25-1 .222-1 .278-1 .472-2 .195-1 .388-2 .195-1 .25-1 .5-2 .25-1 .611-2 .667-2 1-3 1-3 .666-2 .695-2 .36-1 .862-2 .5-1 .861-2 .778-2 .444-1 .417-1 .972-2 .556-1 .444-1 .556-1 .444-1 .556-1 .444-1 1.028-2 .583-1 .556-1 1.222-2 1.139-2 .5-1 1.139-2 .639-1 .639-1 .666-1 1.278-2 .583-1 1.195-2 1.305-2 1.445-2 .722-1 .75-1L90 636l1.417-2 .777-1 1.612-2 1.583-2 .833-1L98 626l.917-1 1.694-2 .778-1 1.694-2 .945-1 .972-1 2-2 1-1 2-1.917 1-.861 2-1.583 1-.778 1-.722 2-1.5 1-.778 2-1.417 1-.611 2-1.222 2-1.222 1-.556 1-.555 1-.445 1-.444 1-.361 2-.695 1-.333 2-.583 1-.195 2-.194 2-.028 2 .083 1 .167 1 .25 2 1 1.917 1.583.833.945.75.972 1 2 .25 1 .167 1 .083 2v2l-.083 2-.334 2-.277 1-.639 2-.334 1-.722 2-.417 1-.388 1-.862 2-.944 2-1 2-.528 1-.528 1-.583 1-.555 1-.612 1-.583 1-1.222 2-1.195 2-1.222 2-1.361 2-1.472 2-.778 1-.75 1-1.694 1.972-.945.945-1.972 1.694-1 .75-1 .778-2 1.417-1.944 1.194-.556.25-1.5 1 .083 1.5.417 1.556.917 1.944 1.277 2 1.528 1.917 1.806 1.583 1.972 1.083 1 .389 1 .334 1 .277 2 .334 2 .083 2-.083 1-.139 2-.472 1-.334 2-.889 1-.583 1.972-1.583L148.75 664l.778-1 .639-1 1.222-2 1.222-2 .556-1 .555-1 .889-2 .778-2 .805-2 .417-1 .778-2 .805-2 .417-1 .361-1 .361-1 .334-1 .666-2 .667-2 .306-1 .305-1 .528-2 .222-1 .278-1 .222-1 .278-1 .472-2 .195-1 .388-2 .195-1 .222-1 .306-2 .055-1 .028-2v-6l-.083-2-.306-2-.25-1-.222-1-.278-1-.25-1-.305-1-.695-2-.861-2-.528-1-1-2-.472-1-1.222-2-1.611-2-.945-.972-.972-.945-2-1.611-2-1.222-1-.472-1-.528-2-.861-1-.361-2-.639-1-.25-2-.5-1-.25-2-.306-1-.055-2 .055-2 .306-1 .222-2 .306-2 .166-2 .306-1 .25-1 .222-2 .528-2 .639-2 .778-2 .805-2 .778-1 .444-1 .445-1 .555-1 .556-2 1.222-2 1.195-1 .583-1 .639-2 1.305-1 .667-2 1.417-1 .777-2 1.612-2 1.583-2 1.694-2 1.834-1 .861-2 1.611-2 1.694-1 .945L82 610l-1.972 2-.945 1-1.694 2-.778 1-1.694 2-.917 1-1.778 2-.833 1-1.583 2-1.612 2-.805 1-.75 1-.778 1-1.472 2-.695 1-1.388 2-.695 1-.75 1-1.472 2-1.361 2-1.222 2-1.195 2-1.222 2-1.139 2-.5 1-1.139 2-1.222 2-.556 1-.583 1-1.028 2-.444 1-.556 1-.444 1-.556 1-.444 1-1 2-.528 1-.417 1-.444 1-.778 2-.805 2-.417 1-.361 1-.361 1-.695 2-.36 1-.806 2-.417 1-.695 2-.555 2-.278 1-.222 1-.278 1-.222 1-.278 1-.5 2-.222 1-.278 1-.472 2-.195 1-.388 2-.195 1-.222 1-.195 1-.388 2-.195 1-.222 1-.306 2-.055 1-.028 1v18l.028 1 .055 1 .306 2 .222 1 .195 1 .388 2 .195 1 .472 2 .306 1 .277 1 .39 1 .777 2 .778 2 .444 1 .445 1 .555 1 .556 1 .639 1 1.305 2 .667 1 1.417 2 1.666 1.972.945.945L47 759.611l1 .778L50 762l1 .778 1 .75 1 .611 2 1.083 1 .528 2 .861 1 .361 2 .695 2 .639 1 .277 2 .334 2 .083h6l2-.083 1-.139 1-.195 2-.583 2-.667 2-.722 2-.861 1-.528 2-1 1-.472 2-1.139 1-.639 2-1.305 1-.667 2-1.417 1.944-1.555 1-.75.556-.5L103 755m502-77-.25-1.5-.167-.556-.277-1L604 674l-.583-2-.195-1-.139-1-.083-2v-5l.083-2 .334-2 .277-1 .695-2 .444-1 .417-1 .528-1 .472-1 1.139-2 1.278-2 1.333-2 1.389-2 .75-1 1.5-2 .75-1 1.694-2 1.917-1.972 1-.945 2-1.694 1-.778 2-1.667 1-.888 2-1.667 2-1.528 1-.694 1-.723 1-.611 2-1.222 2-1.222 1-.556 1-.583 1-.472 2-1 2-1 1-.556 1-.444 1-.556 1-.444 1-.528 2-.861 1-.361 2-.695 1-.333 3-1 4-1.333 2-.667 2-.611 2-.528 1-.222 1-.278 1-.222 1-.278 2-.472 2-.333 1-.112 1-.166 1-.167 1-.222 2-.306 1-.055 1-.028h13l2 .028 1 .055 2 .306 1 .25 1 .222 1 .278 1 .25 2 .639 1 .389 2 1 1 .611 2 1.389 1.972 1.666.945.945.833.972.778 1 1.194 2 .417 1 .389 1 .389 2 .083 2v2l-.028 2-.194 2-.195 1-.583 2-.333 1-.695 2-.361 1-.444 1-.417 1-.528 1-.472 1-1.139 2-.639 1-1.305 2-1.361 2-.695 1-.75 1-1.5 2-.75 1-1.694 2-.945 1-1.972 2-2 2-2 1.972-1 .945-2 1.694-1 .778-1 .805-2 1.612-1 .805-2 1.528-1 .722-2 1.445-2 1.305-1 .583-2 1.195-2 1.222-1 .583-2 1.195-1 .611-2 1.111-2 .889-1 .389-2 .861-1 .5-2 .861-2 .778-2 .805-1 .417-2 .722-2 .667-1 .306-1 .305-2 .528-1 .222-1 .278-1 .222-1 .278-2 .472-.944.167-1.556.194-1.5.028 1.167-1.5.25-.556.555-1 .389-.944.889-2 .972-2 .528-1 .861-2 .778-2 .444-1 .417-1 .972-2 .556-1 .444-1 .556-1 .444-1 1-2 .556-1 .444-1 .556-1 .444-1 .556-1 .444-1 .556-1 1.055-2 .556-1 1.222-2 1.139-2 .5-1 1.139-2 1.222-2 1.195-2 .583-1 .639-1 .639-1 .666-1 1.334-2 .666-1 1.278-2 .583-1 1.195-2 1.194-2 .528-1 .861-2 .584-2 .138-1-.194-2-.778-2-.583-1-1.389-1.917-1.778-1.611-1.972-1.194-2-.806-1-.222-1-.167-2-.083-2 .028-1 .083-1.917.611-1.611 1.389-.611.917-1.083 1.972-.528 1-.417 1-.472 1-.417 1-1 2-1.111 2-.583 1-1.028 2-.444 1-.556 1-.444 1-.556 1-.444 1-.556 1-.444 1-.556 1-.444 1-.556 1-.444 1-.556 1-1 2-.444 1-.556 1-.444 1-.556 1-.444 1-.556 1-.444 1-.556 1-.444 1-.556 1-.444 1-.556 1-1 2-.444 1-.556 1-.972 2-.417 1-.444 1-.778 2-.861 2-.528 1-.444 1-.556 1-.444 1-1 2-.556 1-.444 1-.556 1-.444 1-.556 1-1 2-.444 1-.556 1-.444 1-1 2-.528 1-.417 1-.444 1-.778 2-.444 1-.417 1-.972 2-.556 1-.444 1-.556 1-.444 1-1 2-.528 1-.861 2-.778 2-.861 2-.972 2-.528 1-.417 1-.444 1-.778 2-.444 1-.417 1-.972 2-.528 1-.861 2-.778 2-.861 2-.5 1-.861 2-.361 1-.361 1-.334 1-.722 2-.417 1-.805 2-.361 1-.695 2-.639 2-.277 1-.334 2-.083 2v2l.083 2 .389 2 .389 1 .417 1 1.194 2 .778.972.833.945 1.917 1.666 1 .695 1 .639 2 1 1 .361 2 .5 1 .139 1.944.083H616l.806-1.5.527-1.556.25-.944.223-1 .388-2 .195-1 .472-2 .528-2 .305-1 .612-2 .305-1 .528-2 .25-1 .305-1 .306-1 .667-2 .722-2 .805-2 .417-1 .361-1 .361-1 .667-2 1-3 .667-2 .722-2 .805-2 .417-1 .722-2 .334-1 .722-2 .805-2 .417-1 .695-2 .277-.944.334-1.556.083-1.5h2.056l1.944-.028 1-.055 2-.306 1-.222 2-.306 1-.055 2-.111 2-.306 2-.389 1-.139 2-.166 2-.306 1-.25 2-.5 1-.222 1-.25 2-.333 1-.112 2-.333 1-.25 2-.5 2-.555 2-.695 1-.417 2-.805 2-.778 1-.444 1-.417 2-.972 1-.556 1-.444 1-.556 1-.472 2-1.139 1-.639 1-.639 1-.666 2-1.334 2-1.333 1-.694 1-.695 2-1.472 1-.778 1-.75 1-.805 2-1.612 2-1.583 2-1.694 1-.945 1-.972 2-2 2-2 1-1 1.972-2 .945-1 1.666-2 .723-1 1.388-2 .695-1 1.444-2 .723-1 .611-1 1.222-2 1.222-2 .556-1 .583-1 .472-1 .528-1 .417-1 .444-1 .722-2 .667-2 .306-1 .305-1 .528-2 .222-1 .278-1 .222-1 .5-2 .25-1 .306-2 .055-1 .028-2v-6l-.028-2-.055-1-.306-2-.25-1-.5-2-.25-1-.639-2-.361-1-.417-1-.833-2-.417-1-1-2-.583-1-.555-1-1.278-2-1.611-2-1.917-2-1-1-1-1-2-1.917-2-1.666-2-1.389-1-.639-1-.556-1-.583-1-.472-1-.528-2-.861-1-.361-1-.361-2-.667-2-.667-1-.333-2-.583-2-.334-2-.166-2-.306-1-.222-2-.306-1-.055-1-.028h-15l-1 .028-1 .055-2 .306-1 .222-1 .195-2 .388-1 .195-1 .222-1 .195-2 .388-1 .195-1 .25-1 .222-2 .528-1 .305-1 .306-2 .667-2 .666-1 .334-2 .722-1 .417-2 .805-2 .778-1 .444-1 .417-1 .528-2 1-1 .444-1 .556-1 .444-2 1.028-1 .583-1 .556-2 1.222-2 1.195-1 .583-1 .639-1 .639-2 1.305-2 1.222-1 .639-1 .611-1 .723-1 .694-1 .778-2 1.5-1 .722-1 .778-1 .75-2 1.694-2 1.917-1 1-2 2-2 2-1 1-1.917 2-1.666 2-.723 1-1.361 2-1.333 2-.667 1-1.305 2-.639 1-1.139 2-.472 1-.556 1-.444 1-.528 1-.861 2-.361 1-.639 2-.25 1-.5 2-.417 2-.139 1-.083 2v6l.083 2 .334 2 .277 1 .695 2 .444 1 .445 1 1.194 2 1.611 1.917 1.917 1.611 1 .611 2 1.083 2 .917 1 .389 2 .389 2 .055 1.944-.25 1.556-.583L605 678m-391 30 .806-1.5.194-.556.806-1.944.388-1 .417-1 .361-1 .361-1 .667-2 .306-1 .305-1 .528-2 .222-1 .278-1 .222-1 .5-2 .25-1 .306-2 .055-1 .028-2v-8l-.083-2-.139-1-.195-1-.611-2-.389-1-1-2-.611-1-.666-.972-.723-.945-1.666-1.666-1.917-1.389-1-.611-2-1-2-.723-2-.5-1-.194-2-.389-2-.389-1-.139h-2l-2 .306-1 .25-2 .528-1 .277-2 .806-1 .528-1 .472-2 1.222-1 .778-1 .833-2 1.917-1 1-1 1-2 2-2 2-1.972 2-.945 1-1.694 2-.778 1-1.694 2-1.834 2-1.694 2-1.583 2-1.612 2-.777 1-.723 1-1.305 2-.583 1-1.195 2-1.222 2-.556 1-.583 1-1.028 2-.444 1-.556 1-.972 2-.417 1-.444 1-.778 2-.805 2-.778 2-.639 2-.25 1-.278 1-.472 2-.389 2-.389 2-.222 1-.306 2-.055 1-.028 2 .083 2 .306 2 .222 1 .333 2 .112 1 .361 2 .277 1 .695 2 .889 2 .555 1 1.195 2 .666 1 1.528 1.917 1.806 1.666 1.972 1.389 1 .611 2 .945 2 .611 1 .222 1 .25 2 .306 2 .083h1l2-.083 1-.139 1-.195 2-.583 1-.333 1-.334 2-.75 2-1 1-.611 2-1.361 1-.75 1-.722 2-1.528 2-1.694 1-.945 2-1.972 1-1 1-1 1.917-2 1.694-2 .75-1 .778-1 1.472-2 1.389-2 1.333-2 1.361-2 .723-.972 1.666-1.695.945-.639 1.972-.805 1-.278 2-.639 2-.805 1-.417.944-.5 1-.417.556-.333 1.5-.5-.75 1.5-.083.556-.334 1-.194.944-.25 1-.389 2-.389 2-.222 1-.306 2-.055 1-.028 2v5l.083 2 .334 2 .277 1 .723 2 1.083 2 .75 1 1.778 1.972.972.945 2 1.583 2 1 1 .25 1 .167 2 .083h2l2-.083 2-.334 2-.611 1-.361 2-.889 1-.555 2-1.195 2-1.305 1-.667 1.944-1.361 1-.806.556-.416L254 743l-.5 1.5-.333.556-.417 1-.5.944-.861 2-.778 2-.861 2-.972 2-.556 1-.444 1-.528 1-.417 1-.444 1-.778 2-.805 2-.417 1-.778 2-.417 1-.805 2-.778 2-.805 2-.417 1-.722 2-.667 2-.667 2-.639 2-.305 1-.528 2-.222 1-.25 1-.306 2-.083 2v7h-3.056l-1.944.028-1 .055-2 .306-1 .222-2 .306-1 .055-2 .028-2 .028-1 .055-2 .306-1 .222-2 .306-1 .055-2 .028h-2l-1 .028-1 .055-2 .306-1 .222-2 .306-2 .111-1 .055-2 .306-1 .222-2 .306-1 .055-2 .111-2 .306-1 .222-2 .306-1 .055-2 .028-2 .028-1 .055-2 .306-1 .222-2 .306-1 .055-2 .056-1 .055-2 .306-2 .389-1 .139-2 .166-2 .306-1 .222-2 .306-1 .055-2 .028-1 .028-1 .055-2 .306-2 .389-1 .139-2 .166-1 .139-1 .167-2 .389-1 .139-1 .055-2 .111-1 .139-2 .389-1 .195-2 .388-1 .195-1 .222-2 .306-1 .055-2 .111-1 .139-2 .389-1 .195-2 .388-1 .195-2 .389-2 .278-2 .333-1 .222-1 .195-2 .388-1 .195-1 .222-1 .195-2 .388-1 .195-2 .417-2 .388-1 .195-2 .472-1 .278-1 .222-1 .278-1 .222-2 .583-1 .417-1 .417-1.972 1.194-1.695 1.611-.972 1.917v1.972l.361.945.611.861.778.805L87 829.972l2 1.195 1 .583 1 .472 1 .556 1 .444 1 .556 1 .444 1 .556 1 .444 1 .556 1 .444 1 .556 2 1 1 .444 1 .556 1 .444 1 .556 1 .444 1 .556 2 1 1 .444 1 .556 2 .972 1 .417 1 .444 2 .778 2 .805 1 .417 2 .695 1 .277 2 .417 2 .389 1 .222 2 .306 1 .055h2l1-.055 2-.306 1-.222 1-.195 2-.388 1-.195 1-.222 2-.333 1-.112 2-.333 1-.222 1-.195 2-.388 1-.195 1-.222 2-.333 1-.112 2-.333 1-.222 1-.195 2-.388 1-.195 1-.222 2-.333 1-.112 2-.333 1-.222 1-.195 2-.388 1-.195 1-.222 1-.195 2-.388 1-.195 1-.222 1-.195 2-.388 2-.417 2-.333 1-.112 2-.333 1-.222 2-.333 1-.112 2-.333 1-.222 2-.333 1-.112 2-.333 1-.222 2-.333 1-.112 2-.333 2-.389 1-.139 2-.166 1-.139 2-.389 1-.167 1-.166 1-.112 2-.333 1-.222 2-.333 2-.278 1-.167 2-.389 1-.139 2-.111 1-.055 2-.306 2-.389 1-.139 2-.166 1-.139 2-.389 1-.195 2-.388 1-.195 2-.389 2-.194 2-.056 1-.055 2-.306 1-.222 2-.306 1-.055 2-.111 2-.306 1-.222 2-.306 1-.055 2-.111 2-.306 1-.222 2-.333 1-.112 2-.333 1-.222 2-.306 2-.111 1-.055 2-.306 1-.222 2-.306 1-.055 2-.028 2-.028 1-.055 2-.306 1-.222 2-.306 1-.055 2-.056 1-.055 2-.306 1-.222 2-.306 2-.111 1-.055 2-.306 1-.222 2-.306 1-.055 2-.111 2-.306 1-.222 2-.306 1-.055 2-.056 1-.055 2-.306 1-.222 2-.306 1-.055 2-.028h2l1-.028 1-.055 2-.306 1-.222 2-.306 1-.055 1-.028 2-.028 1-.055 2-.306 1-.222 2-.306 1-.055 1-.028 2-.028 1-.055 2-.306 1-.222 2-.306 1-.055 2-.056 1-.055 2-.306 1-.222 2-.306 1-.055 2-.028 2-.028 1-.055 2-.306 1-.222 2-.306 1-.055 2-.028 2-.028 1-.055 2-.306 2-.389 2-.194 2-.056 1-.055 2-.306 1-.222 2-.306 2-.083h3l2-.028 1-.055 2-.306 2-.389 2-.194 2-.056 1-.055 2-.306 1-.222 2-.306 2-.083h3l2-.028 1-.055 2-.306 1-.222 2-.306 1-.055 2-.028 1-.028 1-.055 2-.306 1-.222 2-.306 1-.055 2-.028h4l2-.028 1-.055 2-.306 1-.222 2-.306 1-.055 2-.028h2l1-.028 1-.055 2-.306 1-.222 2-.306 1-.055 2-.028 2-.028 1-.055 2-.306 1-.222 2-.306 1-.055 1-.028h2l2-.028 1-.055 2-.306 1-.222 2-.306 1-.055 2-.028h4l2-.028 1-.055 2-.306 1-.222 2-.306 1-.055 2-.028h5l2-.028 1-.055 2-.306 1-.222 2-.306 2-.083h3l2-.028 1-.055 2-.306 1-.222 2-.306 1-.055 2-.028h5l2-.028 1-.055 2-.306 1-.222 2-.306 1-.055 1-.028h7l2-.028 1-.055 2-.306 1-.222 2-.306 1-.055 2-.028h5l2-.028 1-.055 2-.306 1-.222 2-.306 1-.055 2-.028h8l1-.028 1-.055 2-.306 1-.222 2-.306 1-.055 2-.028h15l2-.083 2-.306 1-.222 2-.306 1-.055 2-.028h11l2-.028 1-.055 2-.306 1-.222 2-.306 2-.083h16l2-.028 1-.055 2-.306 1-.222 2-.306 1-.055 2-.028h17l2-.028 1-.055 2-.306 1-.222 2-.306 1-.055 2-.028h21l2-.028 1-.055 2-.306 1-.222 2-.306 1-.055 2-.028h35l2-.028 1-.055 2-.306 1-.222 2-.306 2-.083h28l2-.028 1-.055 2-.306 1-.222 2-.306 2-.083h44l2-.083 2-.306 1-.222 2-.306 1-.055 2-.028h56l1-.028 1-.055 2-.306 2-.5 1-.361 1.889-1.083.778-.778.583-.917.306-.972-.306-1.889-1.361-1.389-1.889-.611-2-.111h-20l-2-.028-1-.055-2-.306-1-.222-2-.306-1-.055-1-.028h-24l-2-.028-1-.055-2-.306-1-.222-2-.306-2-.083h-30l-2-.028-1-.055-2-.306-1-.222-2-.306-2-.083h-38l-2-.083-1-.139-2-.389-2-.306-1-.055-1-.028H684l-2 .083-2 .306-1 .222-2 .306-2 .083h-45l-2 .083-2 .306-1 .222-2 .306-2 .083h-31l-2 .083-2 .306-1 .222-2 .306-1 .055-2 .028h-20l-2 .028-1 .055-2 .306-1 .222-2 .306-1 .055-2 .028h-16l-2 .028-1 .055-2 .306-1 .222-2 .306-1 .055-2 .028h-19l-2 .028-1 .055-2 .306-1 .222-2 .306-1 .055-2 .028h-11l-2 .028-1 .055-2 .306-1 .222-2 .306-1 .055-2 .028h-13l-2 .083-2 .306-1 .222-2 .306-1 .055-2 .028h-11l-2 .028-1 .055-2 .306-1 .222-2 .306-1 .055-2 .028h-6l-2 .028-1 .055-2 .306-1 .222-2 .306-1 .055-1 .028h-10l-1 .028-1 .055-2 .306-1 .222-2 .306-1 .055-2 .028h-4l-2 .028-1 .055-2 .306-1 .222-2 .306-1 .055-2 .028h-3l-2 .083-2 .306-1 .222-2 .306-1 .055-2 .028h-3l-2 .083-2 .306-1 .222-2 .306-1 .055-2 .028h-6l-2 .083-1 .139-2 .389-2 .306-1 .055-2 .028h-4l-2 .028-1 .055-2 .306-1 .222-2 .306-1 .055-2 .028h-3l-2 .083-2 .306-1 .222-2 .306-1 .055-2 .028h-3l-2 .028-1 .055-2 .306-1 .222-2 .306-1 .055-2 .028h-3l-2 .083-2 .306-1 .222-2 .306-1 .055-1 .028h-2l-2 .028-1 .055-2 .306-1 .222-2 .306-1 .055-2 .028-1 .028-1 .055-2 .306-.944.222-1 .167-.556.139-1.5.083.083-1.5.139-.556.195-1 .277-.944.306-1 .667-2 .666-2 .334-1 .722-2 .417-1 .805-2 .361-1 .361-1 .334-1 .722-2 .417-1 .805-2 .778-2 .861-2 .5-1 .861-2 .778-2 .861-2 .972-2 .556-1 .444-1 1-2 .528-1 .417-1 .444-1 .778-2 .805-1.944.306-.556.5-1.5 1.5 1.389 1.556 1.028.944.472 2 .722 1 .25 2 .5 1 .25 2 .306 2 .083 2-.028 1-.055 2-.306 1-.222 1-.195 2-.388 1-.195 2-.472 1-.278 1-.222 1-.278 1-.222 2-.528 1-.305 1-.306 2-.667 2-.666 1-.334 2-.722 1-.417 1-.388 2-.806 2-.806 1-.388 1-.417 2-.778 1-.444 1-.445 1-.555 1-.556 2-1.222 2-1.139 1-.5 2-1.194 1-.723 1-.694 2-1.528 2-1.611 2-1.611 1-.778 1.944-1.639L351 726v4l.028 2 .055 1 .306 2 .25 1 .528 2 .277 1 .806 2 .528 1 .472 1 1.222 2 .778.972.833.945 1.917 1.666 2 1.389 2 1.195 1 .555 2 .834 1 .277 2 .528 1 .25 2 .278h1l2-.278 1-.222 2-.389 1-.194 2-.445 1-.222 1-.306 1-.277 1-.389 2-.778 2-.778 1-.444 1-.417 1-.528 2-1 1-.472 1-.583 1-.556 1-.639 2-1.305 1-.667 2-1.333 2-1.361 1-.723 2-1.666 2-1.917 1-1 2-2 2-2 1-1 1.917-2 1.694-2 .75-1 .778-1 .722-1 .75-1 1.361-2 .611-1 .917-2 .222-1 .111-1-.333-1.917-1-1.583-1.583-.917H421l-1.972.917-.945.75-.861.833-.833.945-1.611 1.972-.861 1-1.917 2-1 1-1 1-2 2-2 1.972-1 .945-2 1.694-1 .75-1 .778-1 .722-2 1.5-1 .778-1 .694-1 .723-2 1.194-1 .472-2 1-1 .528-1 .417-1 .444-2 .722-1 .334-2 .639-1 .25-2 .111-2-.611-.972-.556-1.778-1.583-.75-.945-1-1.972-.417-2-.083-2 .083-2 .306-2 .25-1 .222-1 .528-2 .305-1 .639-1.944.223-.556.444-1.5h3.056l1.944-.028 1-.055 2-.306 1-.222 2-.333 1-.112 2-.361 1-.277 2-.695 1-.417 2-.805 2-.806 2-1 1-.611 2-1.305 1-.667 2-1.417 1-.805 2-1.806 2-1.972 1.917-2 1.666-2 .723-1 1.305-2 .583-1 .612-1 .555-1 .583-1 1-2 .417-1 .833-2 .417-1 .695-2 .305-1 .25-1 .5-2 .25-1 .306-2 .055-1 .028-1-.083-2-.334-2-.583-2-.694-2-.417-1-1.195-2-1.722-1.972L416 660.25l-1-.778-2-1.194-1-.417-1-.389-1-.222-1-.167-2-.083h-5l-2 .083-1 .139-1 .195-1 .277-2 .695-1 .444-1 .417-2 1-1 .583-2 1.195-2 1.361-1 .75-1 .722-1 .778-1 .75-2 1.694-2 1.917-1 1-1.917 2-.861 1-.833 1-1.583 2-1.612 2-.777 1-.723 1-1.361 2-.666 1-1.278 2-.583 1-1.195 2-1.222 2-.556 1-.583 1-.472 1-.528 1-.861 2-.778 2-.861 2-.5 1-.861 2-.806 2-1.055 2-1.389 2-.778 1-.75 1-1.694 1.972-.945.945-1.972 1.694-1 .75-1 .778-2 1.417-1 .611-.944.611-1.556 1L338 723l.75-1.5.472-.556 1.334-1.944 1.194-2 .5-1 1.139-2 1.194-2 1-2 .806-2 .861-2 .5-1 .861-2 .361-1 .361-1 .667-2 .306-1 .305-1 .25-1 .528-2 .305-1 .306-1 .583-2 .195-1 .139-1 .083-2v-9l-.028-2-.055-1-.306-2-.25-1-.222-1-.583-2-.806-2-.528-1-.472-1-1.222-1.917-1.611-1.666-1.917-1.389-1-.611-2-.917-1-.25-2-.222-1-.028h-4l-1 .028-1 .055-2 .334-2 .611-2 .805-1 .417-1 .528-1 .472-2 1.139-2 1.278-2 1.333-2 1.389-1.944 1.389-.556.472-1.5.75v-2.056l-.028-1-.055-.944-.334-2-.305-1-.917-2-1.472-1.972L306 655.25l-1-.778-2-1.194-2-.806-1-.222-2-.139-2 .389-.972.444-.945.556-1.583 1.583-1 1.917-.444 2-.112 1-.333 2-.472 2-.306 1-.277 1-.389 1-.778 2-.722 2-.334 1-.361 1-.361 1-.861 2-.528 1-.444 1-.528 1-.417 1-.444 1-.778 2-.444 1-.417 1-.972 2-.556 1-.444 1-1 2-.556 1-.444 1-.556 1-.444 1-.556 1-.444 1-1 2-.556 1-.444 1-.556 1-.444 1-.556 1-.444 1-.556 1-.472 1-1.139 2-.639 1-1.305 2-.667 1-1.417 2-.777 1-1.612 2-1.583 2-1.694 2-1.917 2-2 2-1 1-2 1.917-2 1.694-1 .75-1 .778-1 .722-1 .75-2 1.278-1.944.805-1 .195L240 736l-.25-1.5-.333-1.556-.111-1.944.333-2 .5-2 .25-1 .611-2 .333-1 1-3 1-3 .334-1 .361-1 .361-1 .417-1 .805-2 .778-2 .861-2 .5-1 .861-2 .778-2 .861-2 .528-1 .972-2 .417-1 .444-1 .778-2 .444-1 .417-1 .528-1 1-2 .444-1 .556-1 .972-2 .417-1 .444-1 .778-2 .444-1 .417-1 .528-1 1-2 .444-1 .556-1 .444-1 .556-1 .444-1 .556-1 .444-1 .556-1 1-2 .444-1 .556-1 .444-1 .556-1 .444-1 .556-1 1-2 .444-1 .556-1 .444-1 .528-1 .861-2 .778-2 .444-1 .417-1 .528-1 .472-1 1.139-2 1.222-2 .556-1 .583-1 .472-1 1-2 .556-1 .444-1 .556-1 .444-1 .556-1 .444-1 .556-1 .444-1 .556-1 1-2 .444-1 .556-1 .444-1 .556-1 .444-1 .556-1 .444-1 1-2 .528-1 .417-1 .444-1 .695-2 .277-1 .334-2 .083-2v-1l-.028-2-.055-1-.389-2-.806-2-.583-1-.611-1-1.611-1.889-.945-.805-1.972-1.195-1-.389-1-.305-2-.334-1-.055-2 .055-1 .167-.972.25-1.778 1-1.306 1.583-.444.945-.278.972-.416 2-.223 1-.583 2-.333 1-.695 2-.361 1-.861 2-.5 1-.861 2-.778 2-.444 1-.417 1-.972 2-.556 1-.444 1-1 2-.556 1-.444 1-.556 1-.444 1-1 2-.528 1-.417 1-.444 1-.778 2-.444 1-.417 1-.528 1-1 2-.444 1-.556 1-.972 2-.417 1-.444 1-.778 2-.444 1-.417 1-.972 2-.556 1-.444 1-.556 1-.444 1-1 2-.556 1-.972 2-.417 1-.444 1-.778 2-.861 2-.528 1-.444 1-.556 1-1 2-.444 1-1 2-.556 1-.444 1-.556 1-.444 1-.556 1-.444 1-1 2-.528 1-.417 1-.444 1-.778 2-.861 2-.528 1-.972 2-.861 2-.806 2-1 2-.611 1-1.389 2-1.666 2-1.917 1.917-2 1.666-1 .723-2 1.305-1 .556-.944.555-1 .445-.556.333-1.5.5m703 26-1-1 .083-1.5.139-.556.195-1L917 728l.667-2 .722-2 .417-1 .805-2 .778-2 .861-2 .5-1 .861-2 .778-2 .861-2 .5-1 .861-2 .778-2 .861-2 .972-2 .556-1 .444-1 .528-1 .417-1 .444-1 .778-2 .444-1 .417-1 .972-2 .556-1 .444-1 1-2 .528-1 .417-1 .444-1 .695-2 .444-2 .083-1-.25-2-.694-2-1.195-1.972-.805-.945L933 669.5l-2-1-2-.389h-1l-1.944.306L924 669l-.278-1.5-.666-1.556-.556-.944-1.583-1.972L919 661.25l-1-.778-2-1.194-2-.889-1-.361-2-.611-2-.334-2-.083h-4l-2 .083-2 .334-2 .583-1 .333-2 .75-2 1-1 .611-2 1.306-2 1.333-2 1.361-2 1.528-1 .861-2 1.917-2 2-1 1-1.917 2-.861 1-1.583 2-1.5 2-.778 1-.722 1-.778 1-.722 1-1.445 2-1.305 2-.583 1-1.195 2-1.222 2-.556 1-.583 1-.472 1-.556 1-.444 1-.528 1-.417 1-.444 1-.778 2-.805 2-.417 1-.722 2-.334 1-.75 2-.5 1-.583 1-.722 1-1.584 2-.805 1-1.611 2-.861 1-1.917 2-1 1-2 2-2 2-2 2-2 1.917-2 1.666-2 1.306-.944.472-1.556.528-1.5.111v-3.056l.083-1.944.139-1 .417-2 .5-2 .25-1 .611-2 .667-2 .361-1 .361-1 .417-1 .805-2 .778-2 .417-1 .805-2 .778-2 .417-1 .805-2 .778-2 .861-2 .5-1 .861-2 .778-2 .861-2 .5-1 .861-2 .778-2 .861-2 .528-1 .444-1 .528-1 .861-2 .778-2 .861-2 .5-1 .861-2 .778-2 .861-2 .972-2 .556-1 .444-1 .528-1 .417-1 .444-1 .778-2 .444-1 .417-1 .528-1 1-2 .444-1 .556-1 .972-2 .417-1 .444-1 .778-2 .861-2 .528-1 .444-1 .556-1 .444-1 .556-1 .972-2 .417-1 .444-1 .778-2 .444-1 .417-1 .972-2 .556-1 .444-1 1-2 .556-1 .444-1 .556-1 .444-1 1-2 .528-1 .861-2 .695-2 .277-1 .334-2 .055-1 .028-2v-1l-.083-2-.417-2-1-2-1.583-1.917-1.917-1.611-1-.611-2-1-1-.389-1-.222-2-.194-1 .027-2 .417-1.889 1-.778.75-.639.833-.805 1.917-.25 1-.25 1-.389 2-.222 1-.25 1-.722 2-.417 1-.778 2-.444 1-.417 1-.972 2-.556 1-.444 1-.528 1-.417 1-.444 1-.778 2-.444 1-.417 1-.528 1-.444 1-.556 1-.972 2-.417 1-.444 1-.778 2-.444 1-.417 1-.528 1-.444 1-.556 1-.972 2-.417 1-.444 1-.778 2-.444 1-.417 1-.528 1-.444 1-.556 1-.972 2-.417 1-.444 1-.778 2-.861 2-.5 1-.389.944-.583 1.556L833 664h-2l-.361-1.472-.972-1.361-.778-.75-1.889-1.334-2-1-2-.694-1-.25-2-.5-2-.333h-1l-1 .111-1 .194-2 .333-1 .112-2 .361-2 .611-1 .389-2 1-2 1.25-1 .666-2 1.361-1 .723-2 1.666-2 1.917-1 1-1 1-2 2-2 2-1 1-1.917 2-.861 1-1.583 2-1.5 2-.75 1-1.389 2-1.333 2-1.278 2-.583 1-1.195 2-1.222 2-.556 1-.583 1-.472 1-.528 1-.861 2-.778 2-.861 2-.5 1-.806 2-.277 1-.639 2-1.028 2-.75 1-1.778 2-1.972 2-1 1-2 2-3 3-2 2-1 .972-1 .945-2 1.694-1 .75-1 .778-1 .722-1 .75-2 1.361-1 .639-2 1.139-1 .472-1 .556-1 .444-1 .556-1 .444-2 1-1 .528-2 .806-1 .277-1 .278-2 .278-1-.028-2-.5-1.889-1.167-1.417-1.722-.444-.972-.611-2-.389-2-.083-1 .083-1 .139-1 .472-2 .278-1 .5-2 .222-1 .278-1 .222-.944.389-1.556.25-1.5h3.056l1.944-.028 1-.055 2-.306 1-.222 2-.389 2-.389 2-.472 1-.306 1-.277 2-.806 1-.528 1-.444 1-.556 1-.444 1-.556 1-.472 2-1.194 1-.723 2-1.472 1-.75 2-1.694 1-.945 1.917-1.972 1.666-2 1.417-2 .667-1 1.305-2 .639-1 1.139-2 .472-1 .556-1 .444-1 .528-1 .861-2 .361-1 .695-2 .333-1 .583-2 .195-1 .139-1 .083-2v-3l-.083-2-.334-2-.666-2-.473-1-.527-1-1.334-1.972-.805-.945-.861-.861-1.917-1.5-2-1.166-1-.473-2-.666-1-.195-1-.139-2-.083h-4l-1 .028-1 .055-2 .306-2 .472-1 .306-1 .277-2 .806-1 .528-1 .472-2 1.139-2 1.305-1 .723-2 1.583-2 1.611-1 .778-2 1.694-1 .945-1.917 1.972-1.694 2-.778 1-1.611 2-1.611 2-1.528 2-.694 1-.723 1-.611 1-.639 1-.583 1-1.222 2-.583 1-1.195 2-1.222 2-.556 1-.583 1-.472 1-.528 1-.861 2-.778 2-.805 2-.417 1-.722 2-.334 1-.666 2-.667 2-.583 2-.223 1-.388 2-.417 2-.195 1-.388 2-.195 1-.222 1-.306 2-.055 1-.028 2 .028 2 .055 1 .306 2 .222 1 .195 1 .388 2 .223 1 .277 1 .695 2 .444 1 .445 1 1.194 2 1.611 1.972.945.945 1.972 1.611 2 1.194 1 .445 2 .805 2 .611 2 .334 2 .083h6l2-.083 2-.334 2-.583 2-.667 1-.361 2-.778 1-.388 1-.445 1-.417 2-1 1-.583 1-.555 1-.612 1-.583 2-1.222 1-.583 2-1.25 1-.723 1-.694 2-1.528 2-1.694 2-1.917 1-1 1.944-1.944L763 730l.028 2.056.055 1 .306 1.944.222 1 .167 1 .166 1 .112 1 .361 2 .611 2 .389 1 1 1.972 1.277 1.806 1.528 1.583.861.75 1.917 1.278 1 .5 2 .694 2 .334 2 .083 1-.028 1-.055 2-.334 2-.611 1-.361 2-.889 1-.583 1-.583 1-.723 2-1.472 1-.75 1.917-1.694 1.694-1.917.778-1 1.694-2 1.834-2 1.694-2 1.583-2 1.584-2 .722-.944.583-1 .389-.556.528-1.5.694 1.5-.027.556.055 1-.139.944-.361 2-.111 1v1l.278 2 .25 1 .222 1 .583 2 .417 1 .417 1 1.194 1.972.778.945 1.778 1.666.972.695 1 .611 2 .889 1 .333 2 .5 1 .139 1 .083 1-.083 1-.167 1-.277 2-.695 1-.444 2-.945 1-.472 1-.611 1-.583 1-.723 1-.694 2-1.528 2-1.694 1-.945 1-.972 2-2 1.944-1.944L850 734l.083 1.5.139.556.167 1 .25.944.5 2 .25 1 .639 2 .389 1 1.083 2 1.583 1.972.945.945.972.833 2 1.306 1 .444 1 .25 1 .167 2 .083h1l2-.028 1-.055 2-.334 1-.277 2-.723 2-1 1-.611 2-1.389 1.972-1.583.945-.806.861-.805.833-.778.778-.833 1.694-1.806L887 739l1.972-2 .945-1 1.694-2 .778-1 1.694-2 .889-.944.972-1L898 727l-.5 1.5-.306.556-.722 1.944-.389 2-.083 2v1l.083 2 .334 2 .277 1 .695 2 .444 1 1.028 2 .611 1 1.611 1.917 1.917 1.611 2 1.194 1 .417 1 .389 1 .222 1 .167 2 .055 1-.055 2-.334 2-.611 1-.389 2-1 1-.611 2-1.361 1-.75 1-.722 1-.778 1-.75 2-1.694 1-.945 1-.972 2-2 5-5v2.056l.083 1.944.167 1 .222 1 .389 1 .917 2 1.083 2 .611.972 1.611 1.778.945.778 1.972 1.194 1 .417 1 .389 1 .222 1 .167 2 .083h3l2-.083 2-.389 1-.389 2-.917 1-.472 2-1.139 1-.639 2-1.305 2-1.361 1-.723 1-.805 2-1.778 1-.917 2-1.694 1-.778 2-1.694 1-.945 1-.972 2-2 1.972-2 .945-1 1.694-2 .778-1 .805-1 1.612-2 .805-1 .75-1 .778-1 1.472-2 .695-1 1.388-2 .695-1 1.444-2 .695-1 .972-2 .25-1 .14-1-.22-2-.39-.972-.613-.917-.778-.778-.917-.583-1.972-.306-1.972.889-1.806 1.695-.805.972-.723 1-1.388 2-.723 1-1.583 2-1.611 2-.778 1-.805 1-1.612 2-.805 1-.778 1-1.694 2-.945 1-.972 1-2 1.917-2 1.694-1 .778-1 .833-2 1.722-2 1.639-2 1.334-1.944 1-1 .389-.556.25-1.5.444-.667-1.5-.305-.556-.417-1-.5-1.944-.028-2 .334-2 .277-1 .639-2 .667-2 1-3 .667-2 .361-1 .361-1 .417-1 .805-2 .778-2 .861-2 .5-1 .861-2 .778-2 .861-2 .5-1 .861-2 .778-2 .861-2 .528-1 1-2 .444-1 .556-1 .972-2 .417-1 .444-1 .778-2 .444-1 .417-1 .528-1 1-2 .444-1 .556-1 .972-2 .417-1 .444-1 .778-2 .444-1 .417-1 .972-2 .556-1 .444-1 1-2 .556-1 .444-1 .556-1 .444-1 .556-1 .444-1 .556-1 .444-1 .556-1 .444-1 .556-1 .444-1 1-2 .556-1 .444-1 .556-1 .444-1 .556-1 .444-1 .556-1 .444-1 .556-1 .444-1 .556-1 .444-1 .556-1 1.002-2 .44-1 1-2 .56-1 .44-1 1-2 .56-1 .44-1 .56-1 .44-1 .53-1 .86-2 .36-1 .7-2 .64-2 .27-1 .34-2 .08-2v-1l-.08-2-.39-2-.39-1-1-2-.61-.972-1.61-1.778-.95-.778-1.97-1.194-2-.806-1-.222-1-.167-2-.083-2 .111-1 .222-.972.389-.917.611-.778.778-1.027 1.889-.5 2-.195 1-.472 2-.306 1-.277 1-.75 2-.417 1-.778 2-.444 1-.417 1-.972 2-.556 1-1 2-.444 1-.556 1-.444 1-.556 1-.444 1-.528 1-.861 2-.778 2-.444 1-.417 1-.972 2-.556 1-.444 1-1 2-.528 1-.417 1-.444 1-.778 2-.444 1-.417 1-.972 2-.556 1-.444 1-.556 1-.444 1-1 2-.556 1-.972 2-.417 1-.444 1-.778 2-.444 1-.417 1-.972 2-.556 1-.444 1-1 2-.528 1-.417 1-.444 1-.778 2-.444 1-.417 1-.528 1-.972 2-.861 2-.778 2-.861 2-.972 2-.556 1-.444 1-1 2-.528 1-.417 1-.444 1-.778 2-.444 1-.417 1-.972 2-.528 1-.861 2-.778 2-.861 2-.5 1-.861 2-.389 1-.833 2-.417 1-.528 1-.472 1-1.222 2-.75 1-1.584 2-1.583 2-.833 1-.861 1-1.917 2-1 1-2 2-1 1-2 1.917-2 1.666-2 1.306-.944.472-1.556.528-1.5.111m-420-51-1.5-.75-.556-.472-1-.639-.944-.695-2-1.166-1-.417-1-.389-1-.222-1-.167-2-.083h-1l-2 .028-1 .055-2 .389-2 .778-1 .528-1 .472-2 1.139-1 .639-2 1.389-2 1.666-2 1.917-1 1-1.972 2-.945 1-1.694 2-1.528 2-.722 1-.75 1-1.361 2-.639 1-1.139 2-.472 1-.556 1-.444 1-.556 1-.444 1-.556 1-.444 1-.556 1-.444 1-.528 1-.861 2-.361 1-.639 2-.528 2-.222 1-.278 1-.222 1-.5 2-.25 1-.306 2-.055 1-.028 2v4l.083 2 .139 1 .195 1 .611 2 .889 2 .583.972 1.583 1.778.945.75 1.972 1 1 .25 1 .167 2 .083h1l2-.083 1-.167 1-.25 1-.417 2-1.111 2-1.389 2-1.666 1-.945 2-1.972 1.972-2 .945-1 1.694-2 .722-.944.834-1 .416-.556L479 730v5l.028 2 .222 2 .25 1 1 2 .75.972 1.778 1.778.972.75 2 1 1 .25 2 .139 2-.306 2-.611 1-.389 2-1.055 2-1.389 1-.778 1-.75 2-1.694 1-.945 1.944-1.916 1-1L508 734l.083 1.5.417 1.556.917 1.944.611.972 1.389 1.806 1.666 1.5.945.639 1.972 1 1 .361 1 .305 1 .195 1 .139 2 .083 2-.028 1-.055 2-.334 2-.583 1-.333 2-.695 1-.361 2-.889 1-.555 1-.556 2-1.222 2-1.195 1-.583 2-1.305 1-.723 2-1.583 2-1.611 1-.778 2-1.694 1.917-1.917 1.694-2 .778-1 1.611-2 1.583-2 .695-1 1.055-2 .223-1.972-.306-.917-.583-.778-1.695-.889-1.972.306-.972.583-.945.778-1.694 1.889-.778 1-1.694 2-1.917 2-2 1.972-1 .945-2 1.694-1 .75-2 1.5-1 .75-1 .695-2 1.305-1 .556-1 .555-2 .889-1 .361-2 .528-2-.056-1.944-.638-.556-.306-1.5-.5v-4l.028-2 .055-1 .306-2 .389-1.944.194-1.556.028-1.5 2.056-.083 1.944-.306 2-.417 2-.388 1-.223 1-.277 2-.695 2-.861 1-.528 1-.472 1-.611 1-.583 2-1.417 1-.778 1-.75 1.917-1.694 1.666-1.917 1.417-2 .667-1 1.305-2 .639-1 .556-1 .555-1 .445-1 .444-1 .695-2 .277-1 .195-1 .194-2 .028-2-.083-2-.167-1-.25-1-.444-1-1.306-2-.833-.972-1.917-1.722-1-.667-1-.528-2-.694-2-.334-2-.055-1 .055-1 .139-1 .195-1 .277-2 .695-2 .861-1 .528-1 .472-2 1.139-2 1.305-1 .723-1 .805-1 .861-2 1.917-2 2-1 1-1.917 2-1.666 2-.723 1-1.361 2-1.305 2-.639 1-1.139 2-.472 1-1 2-.528 1-.861 2-.361 1-.639 2-.528 2-.222 1-.278 1-.25 1-.778 2-.583 1-1.389 2-.75 1-1.694 2-.945 1-1.972 2-1 1-2 1.972-1 .917-.944.778-1.556.972-1.5.361-.5-2.056-.028-1 .084-.944.638-2 .417-1 .722-2 .334-1 .722-2 .417-1 .805-2 .778-2 .861-2 .5-1 .861-2 .778-2 .861-2 .972-2 .528-1 .417-1 .444-1 .778-2 .861-2 .528-1 .972-2 .417-1 .444-1 .778-2 .444-1 .417-1 .972-2 .556-1 .444-1 .556-1 .444-1 1-2 .528-1 .417-1 .444-1 .778-2 .861-2 .528-1 1-2 .444-1 .556-1 .444-1 .556-1 .444-1 1-2 .556-1 .444-1 .556-1 .444-1 .556-1 .444-1 .556-1 .444-1 .528-1 .861-2 .361-1 .334-1 .444-2 .083-1-.25-2-.694-2-.528-.972-.667-.945-1.722-1.583-1.972-1-2-.417-2 .028-1.917.611-1.583 1.389-.556.917-.444.972-.278 1-.444 2-.25 1-.778 2-.5 1-.861 2-.778 2-.861 2-.528 1-.444 1-.556 1-.444 1-.556 1-.444 1-.556 1-.972 2-.417 1-.444 1-.778 2-.444 1-.417 1-.972 2-.556 1-.444 1-1 2-.528 1-.389.944-.583 1.556L497 683z" style="fill:#e05314;stroke:none"/><path d="m201 708 .278-1.5.194-.556.722-1.944.417-1 .778-2 .805-2 .417-1 .361-1 .695-2 .666-2 .334-1 .333-1 .583-2 .417-2 .389-2 .389-2 .139-1 .083-2v-2l-.083-2-.417-2-.444-.972-1.306-1.695-1.778-1-.972-.222-2-.028-2 .417-2 1-1.917 1.583-.861.945-1.528 1.972-1.277 2-.945 2-.305 1-.528 2-.25 1-.278 2v1l.278 2 .222 1 .167 1 .278 2 .361 2 .583 2 .333 1 .75 2 1 2 1.334 2 1.666 1.889.889.778 1.528.972 1.5.361m81 29 1.5.722.556.028 1 .194.944.028 1 .028h4l2-.083 1-.167 1-.222 1-.389 1-.389 2-1 1-.611 1-.583 2-1.417 1-.778 1-.75 2-1.694 2-1.917 1-1 1.917-2 .861-1 .833-1 .75-1 .778-1 1.472-2 .695-1 .694-1 1.333-2 1.334-2 .666-1 1.278-2 .556-1 .583-1 .472-1 1-2 .556-1 .444-1 .556-1 .444-1 .528-1 .861-2 .361-1 .361-1 .334-1 .666-2 1-3 .667-2 .611-2 .25-1 .5-2 .25-1 .278-2v-1l-.278-2-.389-1.944-.194-1.556L333 672l-1-1h-1.5l-1.556.083-.944.167-1 .222-1 .389-1 .417-2 1.166-1 .723-2 1.472-1 .75-1.917 1.694-1.694 1.917-.778 1-1.667 2-.888 1-1.639 2-1.417 2-.694 1-.695 1-.75 1-1.472 2-1.361 2-1.222 2-1.195 2-1.222 2-.583 1-1.195 2-1.222 2-1.139 2-.472 1-1.028 2-1.139 2-1.222 2-.556 1-.583 1-1.028 2-.444 1-.556 1-.444 1-.556 1-1 2-.444 1-1 2-.556 1-.444 1-.556 1-.444 1-.528 1-.389.944-.583 1.556L282 737m124-65-1.5 1-.556.25-1.944 1.139-2 1.305-1 .723-1.972 1.666-.945.945-1.694 1.972-.75 1-.778 1-1.472 2-1.361 2-1.222 2-1.195 2-1.222 2-.556 1-.583 1-1.028 2-.444 1-.556 1-.444 1-.528 1-.389.944-.583 1.556L381 705l1.5-.667.556-.333 1.944-.944 2-.889 1-.445 1-.555 1-.556 2-1.305 1-.695 1-.75 2-1.5 1.917-1.583 1.694-1.806.75-.972.778-1 1.417-2 1.194-2 .472-1 1-2 .528-1 .417-1 .444-1 .361-1 .611-2 .334-2 .083-1.944V672h-2m322 33 1.5-.444.556-.223 1.944-.722 1-.444 1-.445 1-.555 1-.556 1-.639 2-1.305 2-1.361 1-.723 1.972-1.666.945-.945 1.666-1.972 1.417-2 .667-1 1.333-2 1.333-2 1.25-2 .528-1 .472-1 .75-2 .334-1 .333-1 .583-1.944.195-1 .139-.556.083-1.5-1-1-1.5.083-1.556.417-1.944.917-2 1.277-1 .723-2 1.666-1.917 1.917-.861 1-1.583 2-1.5 2-.75 1-1.361 2-.639 1-1.139 2-.5 1-1.139 2-1.222 2-.556 1-.583 1-.472 1-1 2-.528 1-.389.944-.583 1.556L728 705m55 30 1.5-.083 1.556-.389 1.944-.806 2-1.194 1-.778 1-.833 2-1.917 1-1 1.917-2 1.694-2 1.583-2 .806-1 1.583-2 1.417-2 .667-1 .666-1 1.334-2 .666-1 1.334-2 .666-1 .639-1 .639-1 .583-1 1.195-2 1.222-2 1.195-2 .583-1 1.222-2 .583-1 1.195-2 1.222-2 .556-1 .583-1 1.028-2 .444-1 .556-1 .444-1 .556-1 .972-2 .389-1 .389-1 .222-1 .167-1 .083-1.944V674l-2.056-1.139-1-.389-1.944-.166-1 .138-1 .25-2 .723-1 .472-1 .528-1 .611-2 1.389-2 1.666-2 1.917-1.972 2-.945 1-1.694 2-.75 1-.778 1-.722 1-.75 1-1.389 2-1.333 2-1.278 2-.556 1-.583 1-.472 1-1 2-.556 1-.444 1-.556 1-.444 1-1 2-.528 1-.417 1-.444 1-.778 2-.805 2-.778 2-.639 2-.528 2-.25 1-.305 1-.612 2-.277 1-.417 2-.389 2-.222 1-.306 2-.055.944-.028 1V735m89-1 1.5-.083 1.556-.417 1.944-.972 2-1.389 1.917-1.528.861-.805.805-.806 1.417-1.611 1.417-1.611.777-.861 1.612-1.917.805-1 1.528-2 .722-1 .778-1 .722-1 1.5-2 .75-1 1.389-2 1.333-2 .667-1 2-3 2-3 .667-1 1.305-2 .639-1 .583-1 1.195-2 .639-1 .639-1 1.305-2 .639-1 .583-1 1.195-2 .611-1 .611-1 1.111-2 .806-2 .222-1 .222-2-.083-2-.222-.972-.389-.917-.611-.778-.778-.611-1.889-.611-1-.083-2 .055-1 .167-1 .222-2 .778-1 .528-2 1.083-1 .611-2 1.611-2 1.917-1 1-2 2-1.917 2-1.694 2-1.528 2-.722 1-.75 1-.695 1-.694 1-1.333 2-1.278 2-.556 1-.583 1-1.028 2-.444 1-1 2-.528 1-.861 2-.778 2-.805 2-.417 1-.361 1-.361 1-.667 2-.333 1-.667 2-.667 2-.333 1-.583 2-.195 1-.139 1-.083 2 .028 2 .055 1 .139.944.361 1.556.417 1.5m-326-46-2.056 1.472-1 .806-.944.805-1.917 1.917-1.694 2-1.528 2-.694 1-.723 1-.611 1-1.222 2-1.222 2-.556 1-.583 1-1 1.944-.417 1-.333.556-.5 1.5 1.5-.333.556-.306 1-.444.944-.556 2-1.194 1-.611 2-1.417 1.972-1.528 1.806-1.694 1.583-1.917 1.472-2 .723-1 1.166-2 .417-1 .389-1 .222-1 .167-1 .083-1.944V688h-2m-87 45 1 1 2.056-.111 1-.195 1.944-.805 2-1.306 2-1.666 1.917-1.917 1.694-2 .75-1 1.5-2 .778-1 .722-1 .778-1 .722-1 .75-1 1.361-2 1.222-2 1.195-2 1.222-2 1.139-2 .5-1 1.139-2 1.222-2 .556-1 .583-1 .472-1 1-2 .528-1 .75-2 .167-2-.528-1.944-.167-.556L490 689h-1.5l-1.556.083-1.944.417-2 .917-1 .611-1 .666-2 1.528-1 .861-2 1.917-.972 1-.945 1-1.666 2-.723 1-1.361 2-1.305 2-.639 1-1.139 2-.472 1-1 2-.556 1-.444 1-.556 1-.444 1-.528 1-.861 2-.361 1-.639 2-.25 1-.528 2-.305 1-.306 1-.583 2-.195 1-.194 1.944-.028.556v1.5m-284-34-.278 1.5-.583 1.556-.389.944-.5 1-.861 2-.778 2-.805 2-.417 1-.695 2-.305 1-.528 2-.222 1-.278 1-.222 1-.278 1-.5 2-.222 1-.278 1-.472 2-.306 2-.055 1-.028 1v2l.083 2 .167 1 .25 1 1 1.889 1.583 1.389 1.917.583 2-.083 1-.195 2-.666 2-1 1-.639 1-.695 2-1.666 1-.945 2-1.972 1-1 1-1 1.917-2 1.666-2 .723-1 1.277-2 .5-.944.639-1.556.278-1.5-1.5-.528-.556-.361-1-.528-1.944-1.277-1-.723-1.972-1.666-.945-.945-1.666-1.972-1.417-2-.667-1-1.305-2-.639-1-1.111-2-.445-.972-.861-1.695-.555-.611-.25-.361L175 699m79 43 1 1-1-1z" style="fill:#fffdfa;stroke:none"/></svg>